<?xml version="1.0" encoding="UTF-8" standalone="no"?>
<svg
   xmlns:dc="http://purl.org/dc/elements/1.1/"
   xmlns:cc="http://creativecommons.org/ns#"
   xmlns:rdf="http://www.w3.org/1999/02/22-rdf-syntax-ns#"
   xmlns:svg="http://www.w3.org/2000/svg"
   xmlns="http://www.w3.org/2000/svg"
   xmlns:sodipodi="http://sodipodi.sourceforge.net/DTD/sodipodi-0.dtd"
   xmlns:inkscape="http://www.inkscape.org/namespaces/inkscape"
   version="1.1"
   width="29.7002cm"
   height="21.0007cm"
   viewBox="0 0 116930 82680 "
   id="svg864"
   sodipodi:docname="bbwrover-soldermask.svg"
   inkscape:version="0.92.4 5da689c313, 2019-01-14">
  <metadata
     id="metadata870">
    <rdf:RDF>
      <cc:Work
         rdf:about="">
        <dc:format>image/svg+xml</dc:format>
        <dc:type
           rdf:resource="http://purl.org/dc/dcmitype/StillImage" />
        <dc:title>SVG Picture created as bbwrover-brd.svg date 2020/02/01 21:07:18 </dc:title>
      </cc:Work>
    </rdf:RDF>
  </metadata>
  <defs
     id="defs868" />
  <sodipodi:namedview
     pagecolor="#ffffff"
     bordercolor="#666666"
     borderopacity="1"
     objecttolerance="10"
     gridtolerance="10"
     guidetolerance="10"
     inkscape:pageopacity="0"
     inkscape:pageshadow="2"
     inkscape:window-width="1920"
     inkscape:window-height="1028"
     id="namedview866"
     showgrid="false"
     inkscape:zoom="0.77628964"
     inkscape:cx="561.26361"
     inkscape:cy="396.86362"
     inkscape:window-x="0"
     inkscape:window-y="27"
     inkscape:window-maximized="1"
     inkscape:current-layer="svg864" />
  <title
     id="title2">SVG Picture created as bbwrover-brd.svg date 2020/02/01 21:07:18 </title>
  <desc
     id="desc4">Picture generated by PCBNEW </desc>
  <g
     style="fill:#000000; fill-opacity:1;stroke:#000000; stroke-opacity:1; stroke-linecap:round; stroke-linejoin:round; "
     transform="translate(0 0) scale(1 1)"
     id="g6" />
  <g
     style="fill:#000000; fill-opacity:0.0;  stroke:#000000; stroke-width:-0.000393701; stroke-opacity:1;  stroke-linecap:round; stroke-linejoin:round;"
     id="g8" />
  <g
     style="fill:#000000; fill-opacity:0.0;  stroke:#000000; stroke-width:39.3701; stroke-opacity:1;  stroke-linecap:round; stroke-linejoin:round;"
     id="g10" />
  <g
     style="fill:#000000; fill-opacity:0.0;  stroke:#000000; stroke-width:59.0551; stroke-opacity:1;  stroke-linecap:round; stroke-linejoin:round;"
     id="g14">
    <rect
       x="69685.9"
       y="65357.2"
       width="42519.7"
       height="12598.4"
       rx="0"
       id="rect12" />
  </g>
  <g
     style="fill:#000000; fill-opacity:0.0;  stroke:#000000; stroke-width:39.3701; stroke-opacity:1;  stroke-linecap:round; stroke-linejoin:round;"
     id="g16" />
  <g
     style="fill:#000000; fill-opacity:0.0;  stroke:#000000; stroke-width:59.0551; stroke-opacity:1;  stroke-linecap:round; stroke-linejoin:round;"
     id="g20">
    <rect
       x="3937.01"
       y="3937.01"
       width="109056"
       height="74806"
       rx="0"
       id="rect18" />
  </g>
  <g
     style="fill:#000000; fill-opacity:0.0;  stroke:#000000; stroke-width:39.3701; stroke-opacity:1;  stroke-linecap:round; stroke-linejoin:round;"
     id="g22" />
  <g
     style="fill:#000000; fill-opacity:0.0;  stroke:#000000; stroke-width:59.0551; stroke-opacity:1;  stroke-linecap:round; stroke-linejoin:round;"
     id="g26">
    <rect
       x="4724.41"
       y="4724.41"
       width="107481"
       height="73231.2"
       rx="0"
       id="rect24" />
  </g>
  <g
     style="fill:#000000; fill-opacity:0.0;  stroke:#000000; stroke-width:39.3701; stroke-opacity:1;  stroke-linecap:round; stroke-linejoin:round;"
     id="g28" />
  <g
     style="fill:#000000; fill-opacity:0.0;  stroke:#000000; stroke-width:59.0551; stroke-opacity:1;  stroke-linecap:round; stroke-linejoin:round;"
     id="g32">
    <path
       d="M23622 4724 L23622 3937 "
       id="path30" />
  </g>
  <g
     style="fill:#000000; fill-opacity:0.0;  stroke:#000000; stroke-width:39.3701; stroke-opacity:1;  stroke-linecap:round; stroke-linejoin:round;"
     id="g34" />
  <g
     style="fill:#000000; fill-opacity:0.0;  stroke:#000000; stroke-width:59.0551; stroke-opacity:1;  stroke-linecap:round; stroke-linejoin:round;"
     id="g38">
    <path
       d="M43307 4724 L43307 3937 "
       id="path36" />
  </g>
  <g
     style="fill:#000000; fill-opacity:0.0;  stroke:#000000; stroke-width:39.3701; stroke-opacity:1;  stroke-linecap:round; stroke-linejoin:round;"
     id="g40" />
  <g
     style="fill:#000000; fill-opacity:0.0;  stroke:#000000; stroke-width:59.0551; stroke-opacity:1;  stroke-linecap:round; stroke-linejoin:round;"
     id="g44">
    <path
       d="M62992 4724 L62992 3937 "
       id="path42" />
  </g>
  <g
     style="fill:#000000; fill-opacity:0.0;  stroke:#000000; stroke-width:39.3701; stroke-opacity:1;  stroke-linecap:round; stroke-linejoin:round;"
     id="g46" />
  <g
     style="fill:#000000; fill-opacity:0.0;  stroke:#000000; stroke-width:59.0551; stroke-opacity:1;  stroke-linecap:round; stroke-linejoin:round;"
     id="g50">
    <path
       d="M82677 4724 L82677 3937 "
       id="path48" />
  </g>
  <g
     style="fill:#000000; fill-opacity:0.0;  stroke:#000000; stroke-width:39.3701; stroke-opacity:1;  stroke-linecap:round; stroke-linejoin:round;"
     id="g52" />
  <g
     style="fill:#000000; fill-opacity:0.0;  stroke:#000000; stroke-width:59.0551; stroke-opacity:1;  stroke-linecap:round; stroke-linejoin:round;"
     id="g56">
    <path
       d="M102362 4724 L102362 3937 "
       id="path54" />
  </g>
  <g
     style="fill:#000000; fill-opacity:0.0;  stroke:#000000; stroke-width:39.3701; stroke-opacity:1;  stroke-linecap:round; stroke-linejoin:round;"
     id="g58" />
  <g
     style="fill:#000000; fill-opacity:0.0;  stroke:#000000; stroke-width:59.0551; stroke-opacity:1;  stroke-linecap:round; stroke-linejoin:round;"
     id="g66">
    <text
       x="13779.5"
       y="4586.61"
       textLength="487.439"
       font-size="682.415"
       lengthAdjust="spacingAndGlyphs"
       text-anchor="start"
       opacity="0"
       id="text60">1</text>
    <path
       d="M14199 4562 L13906 4562 "
       id="path62" />
    <path
       d="M14052 4562 L14052 4050 L14004 4123 L13955 4172 L13906 4196 "
       id="path64" />
  </g>
  <g
     style="fill:#000000; fill-opacity:0.0;  stroke:#000000; stroke-width:39.3701; stroke-opacity:1;  stroke-linecap:round; stroke-linejoin:round;"
     id="g68" />
  <g
     style="fill:#000000; fill-opacity:0.0;  stroke:#000000; stroke-width:59.0551; stroke-opacity:1;  stroke-linecap:round; stroke-linejoin:round;"
     id="g74">
    <text
       x="33464.6"
       y="4586.61"
       textLength="546.494"
       font-size="682.415"
       lengthAdjust="spacingAndGlyphs"
       text-anchor="start"
       opacity="0"
       id="text70">2</text>
    <path
       d="M33591 4099 L33615 4074 L33664 4050 L33786 4050 L33835 4074 L33859 4099 L33884 4147 L33884 4196 L33859 4269 L33567 4562 L33884 4562 "
       id="path72" />
  </g>
  <g
     style="fill:#000000; fill-opacity:0.0;  stroke:#000000; stroke-width:39.3701; stroke-opacity:1;  stroke-linecap:round; stroke-linejoin:round;"
     id="g76" />
  <g
     style="fill:#000000; fill-opacity:0.0;  stroke:#000000; stroke-width:59.0551; stroke-opacity:1;  stroke-linecap:round; stroke-linejoin:round;"
     id="g82">
    <text
       x="53149.6"
       y="4586.61"
       textLength="546.494"
       font-size="682.415"
       lengthAdjust="spacingAndGlyphs"
       text-anchor="start"
       opacity="0"
       id="text78">3</text>
    <path
       d="M53252 4050 L53569 4050 L53398 4245 L53471 4245 L53520 4269 L53544 4294 L53569 4342 L53569 4464 L53544 4513 L53520 4537 L53471 4562 L53325 4562 L53276 4537 L53252 4513 "
       id="path80" />
  </g>
  <g
     style="fill:#000000; fill-opacity:0.0;  stroke:#000000; stroke-width:39.3701; stroke-opacity:1;  stroke-linecap:round; stroke-linejoin:round;"
     id="g84" />
  <g
     style="fill:#000000; fill-opacity:0.0;  stroke:#000000; stroke-width:59.0551; stroke-opacity:1;  stroke-linecap:round; stroke-linejoin:round;"
     id="g92">
    <text
       x="72834.6"
       y="4586.61"
       textLength="546.494"
       font-size="682.415"
       lengthAdjust="spacingAndGlyphs"
       text-anchor="start"
       opacity="0"
       id="text86">4</text>
    <path
       d="M73205 4221 L73205 4562 "
       id="path88" />
    <path
       d="M73083 4026 L72961 4391 L73278 4391 "
       id="path90" />
  </g>
  <g
     style="fill:#000000; fill-opacity:0.0;  stroke:#000000; stroke-width:39.3701; stroke-opacity:1;  stroke-linecap:round; stroke-linejoin:round;"
     id="g94" />
  <g
     style="fill:#000000; fill-opacity:0.0;  stroke:#000000; stroke-width:59.0551; stroke-opacity:1;  stroke-linecap:round; stroke-linejoin:round;"
     id="g100">
    <text
       x="92519.7"
       y="4586.61"
       textLength="546.494"
       font-size="682.415"
       lengthAdjust="spacingAndGlyphs"
       text-anchor="start"
       opacity="0"
       id="text96">5</text>
    <path
       d="M92914 4050 L92671 4050 L92646 4294 L92671 4269 L92719 4245 L92841 4245 L92890 4269 L92914 4294 L92939 4342 L92939 4464 L92914 4513 L92890 4537 L92841 4562 L92719 4562 L92671 4537 L92646 4513 "
       id="path98" />
  </g>
  <g
     style="fill:#000000; fill-opacity:0.0;  stroke:#000000; stroke-width:39.3701; stroke-opacity:1;  stroke-linecap:round; stroke-linejoin:round;"
     id="g102" />
  <g
     style="fill:#000000; fill-opacity:0.0;  stroke:#000000; stroke-width:59.0551; stroke-opacity:1;  stroke-linecap:round; stroke-linejoin:round;"
     id="g108">
    <text
       x="112205"
       y="4586.61"
       textLength="546.494"
       font-size="682.415"
       lengthAdjust="spacingAndGlyphs"
       text-anchor="start"
       opacity="0"
       id="text104">6</text>
    <path
       d="M112575 4050 L112477 4050 L112429 4074 L112404 4099 L112356 4172 L112331 4269 L112331 4464 L112356 4513 L112380 4537 L112429 4562 L112526 4562 L112575 4537 L112599 4513 L112624 4464 L112624 4342 L112599 4294 L112575 4269 L112526 4245 L112429 4245 L112380 4269 L112356 4294 L112331 4342 "
       id="path106" />
  </g>
  <g
     style="fill:#000000; fill-opacity:0.0;  stroke:#000000; stroke-width:39.3701; stroke-opacity:1;  stroke-linecap:round; stroke-linejoin:round;"
     id="g110" />
  <g
     style="fill:#000000; fill-opacity:0.0;  stroke:#000000; stroke-width:59.0551; stroke-opacity:1;  stroke-linecap:round; stroke-linejoin:round;"
     id="g114">
    <path
       d="M23622 77955 L23622 78742 "
       id="path112" />
  </g>
  <g
     style="fill:#000000; fill-opacity:0.0;  stroke:#000000; stroke-width:39.3701; stroke-opacity:1;  stroke-linecap:round; stroke-linejoin:round;"
     id="g116" />
  <g
     style="fill:#000000; fill-opacity:0.0;  stroke:#000000; stroke-width:59.0551; stroke-opacity:1;  stroke-linecap:round; stroke-linejoin:round;"
     id="g120">
    <path
       d="M43307 77955 L43307 78742 "
       id="path118" />
  </g>
  <g
     style="fill:#000000; fill-opacity:0.0;  stroke:#000000; stroke-width:39.3701; stroke-opacity:1;  stroke-linecap:round; stroke-linejoin:round;"
     id="g122" />
  <g
     style="fill:#000000; fill-opacity:0.0;  stroke:#000000; stroke-width:59.0551; stroke-opacity:1;  stroke-linecap:round; stroke-linejoin:round;"
     id="g126">
    <path
       d="M62992 77955 L62992 78742 "
       id="path124" />
  </g>
  <g
     style="fill:#000000; fill-opacity:0.0;  stroke:#000000; stroke-width:39.3701; stroke-opacity:1;  stroke-linecap:round; stroke-linejoin:round;"
     id="g128" />
  <g
     style="fill:#000000; fill-opacity:0.0;  stroke:#000000; stroke-width:59.0551; stroke-opacity:1;  stroke-linecap:round; stroke-linejoin:round;"
     id="g132">
    <path
       d="M82677 77955 L82677 78742 "
       id="path130" />
  </g>
  <g
     style="fill:#000000; fill-opacity:0.0;  stroke:#000000; stroke-width:39.3701; stroke-opacity:1;  stroke-linecap:round; stroke-linejoin:round;"
     id="g134" />
  <g
     style="fill:#000000; fill-opacity:0.0;  stroke:#000000; stroke-width:59.0551; stroke-opacity:1;  stroke-linecap:round; stroke-linejoin:round;"
     id="g138">
    <path
       d="M102362 77955 L102362 78742 "
       id="path136" />
  </g>
  <g
     style="fill:#000000; fill-opacity:0.0;  stroke:#000000; stroke-width:39.3701; stroke-opacity:1;  stroke-linecap:round; stroke-linejoin:round;"
     id="g140" />
  <g
     style="fill:#000000; fill-opacity:0.0;  stroke:#000000; stroke-width:59.0551; stroke-opacity:1;  stroke-linecap:round; stroke-linejoin:round;"
     id="g148">
    <text
       x="13779.5"
       y="78605.2"
       textLength="546.494"
       font-size="682.415"
       lengthAdjust="spacingAndGlyphs"
       text-anchor="start"
       opacity="0"
       id="text142">1</text>
    <path
       d="M14199 78580 L13906 78580 "
       id="path144" />
    <path
       d="M14052 78580 L14052 78069 L14004 78142 L13955 78190 L13906 78215 "
       id="path146" />
  </g>
  <g
     style="fill:#000000; fill-opacity:0.0;  stroke:#000000; stroke-width:39.3701; stroke-opacity:1;  stroke-linecap:round; stroke-linejoin:round;"
     id="g150" />
  <g
     style="fill:#000000; fill-opacity:0.0;  stroke:#000000; stroke-width:59.0551; stroke-opacity:1;  stroke-linecap:round; stroke-linejoin:round;"
     id="g156">
    <text
       x="33464.6"
       y="78605.2"
       textLength="546.494"
       font-size="682.415"
       lengthAdjust="spacingAndGlyphs"
       text-anchor="start"
       opacity="0"
       id="text152">2</text>
    <path
       d="M33591 78117 L33615 78093 L33664 78069 L33786 78069 L33835 78093 L33859 78117 L33884 78166 L33884 78215 L33859 78288 L33567 78580 L33884 78580 "
       id="path154" />
  </g>
  <g
     style="fill:#000000; fill-opacity:0.0;  stroke:#000000; stroke-width:39.3701; stroke-opacity:1;  stroke-linecap:round; stroke-linejoin:round;"
     id="g158" />
  <g
     style="fill:#000000; fill-opacity:0.0;  stroke:#000000; stroke-width:59.0551; stroke-opacity:1;  stroke-linecap:round; stroke-linejoin:round;"
     id="g164">
    <text
       x="53149.6"
       y="78605.2"
       textLength="546.494"
       font-size="682.415"
       lengthAdjust="spacingAndGlyphs"
       text-anchor="start"
       opacity="0"
       id="text160">3</text>
    <path
       d="M53252 78069 L53569 78069 L53398 78263 L53471 78263 L53520 78288 L53544 78312 L53569 78361 L53569 78483 L53544 78532 L53520 78556 L53471 78580 L53325 78580 L53276 78556 L53252 78532 "
       id="path162" />
  </g>
  <g
     style="fill:#000000; fill-opacity:0.0;  stroke:#000000; stroke-width:39.3701; stroke-opacity:1;  stroke-linecap:round; stroke-linejoin:round;"
     id="g166" />
  <g
     style="fill:#000000; fill-opacity:0.0;  stroke:#000000; stroke-width:59.0551; stroke-opacity:1;  stroke-linecap:round; stroke-linejoin:round;"
     id="g174">
    <text
       x="72834.6"
       y="78605.2"
       textLength="546.494"
       font-size="682.415"
       lengthAdjust="spacingAndGlyphs"
       text-anchor="start"
       opacity="0"
       id="text168">4</text>
    <path
       d="M73205 78239 L73205 78580 "
       id="path170" />
    <path
       d="M73083 78044 L72961 78410 L73278 78410 "
       id="path172" />
  </g>
  <g
     style="fill:#000000; fill-opacity:0.0;  stroke:#000000; stroke-width:39.3701; stroke-opacity:1;  stroke-linecap:round; stroke-linejoin:round;"
     id="g176" />
  <g
     style="fill:#000000; fill-opacity:0.0;  stroke:#000000; stroke-width:59.0551; stroke-opacity:1;  stroke-linecap:round; stroke-linejoin:round;"
     id="g182">
    <text
       x="92519.7"
       y="78605.2"
       textLength="546.494"
       font-size="682.415"
       lengthAdjust="spacingAndGlyphs"
       text-anchor="start"
       opacity="0"
       id="text178">5</text>
    <path
       d="M92914 78069 L92671 78069 L92646 78312 L92671 78288 L92719 78263 L92841 78263 L92890 78288 L92914 78312 L92939 78361 L92939 78483 L92914 78532 L92890 78556 L92841 78580 L92719 78580 L92671 78556 L92646 78532 "
       id="path180" />
  </g>
  <g
     style="fill:#000000; fill-opacity:0.0;  stroke:#000000; stroke-width:39.3701; stroke-opacity:1;  stroke-linecap:round; stroke-linejoin:round;"
     id="g184" />
  <g
     style="fill:#000000; fill-opacity:0.0;  stroke:#000000; stroke-width:59.0551; stroke-opacity:1;  stroke-linecap:round; stroke-linejoin:round;"
     id="g190">
    <text
       x="112205"
       y="78605.2"
       textLength="546.494"
       font-size="682.415"
       lengthAdjust="spacingAndGlyphs"
       text-anchor="start"
       opacity="0"
       id="text186">6</text>
    <path
       d="M112575 78069 L112477 78069 L112429 78093 L112404 78117 L112356 78190 L112331 78288 L112331 78483 L112356 78532 L112380 78556 L112429 78580 L112526 78580 L112575 78556 L112599 78532 L112624 78483 L112624 78361 L112599 78312 L112575 78288 L112526 78263 L112429 78263 L112380 78288 L112356 78312 L112331 78361 "
       id="path188" />
  </g>
  <g
     style="fill:#000000; fill-opacity:0.0;  stroke:#000000; stroke-width:39.3701; stroke-opacity:1;  stroke-linecap:round; stroke-linejoin:round;"
     id="g192" />
  <g
     style="fill:#000000; fill-opacity:0.0;  stroke:#000000; stroke-width:59.0551; stroke-opacity:1;  stroke-linecap:round; stroke-linejoin:round;"
     id="g196">
    <path
       d="M3937 23622 L4724 23622 "
       id="path194" />
  </g>
  <g
     style="fill:#000000; fill-opacity:0.0;  stroke:#000000; stroke-width:39.3701; stroke-opacity:1;  stroke-linecap:round; stroke-linejoin:round;"
     id="g198" />
  <g
     style="fill:#000000; fill-opacity:0.0;  stroke:#000000; stroke-width:59.0551; stroke-opacity:1;  stroke-linecap:round; stroke-linejoin:round;"
     id="g202">
    <path
       d="M3937 43307 L4724 43307 "
       id="path200" />
  </g>
  <g
     style="fill:#000000; fill-opacity:0.0;  stroke:#000000; stroke-width:39.3701; stroke-opacity:1;  stroke-linecap:round; stroke-linejoin:round;"
     id="g204" />
  <g
     style="fill:#000000; fill-opacity:0.0;  stroke:#000000; stroke-width:59.0551; stroke-opacity:1;  stroke-linecap:round; stroke-linejoin:round;"
     id="g208">
    <path
       d="M3937 62992 L4724 62992 "
       id="path206" />
  </g>
  <g
     style="fill:#000000; fill-opacity:0.0;  stroke:#000000; stroke-width:39.3701; stroke-opacity:1;  stroke-linecap:round; stroke-linejoin:round;"
     id="g210" />
  <g
     style="fill:#000000; fill-opacity:0.0;  stroke:#000000; stroke-width:59.0551; stroke-opacity:1;  stroke-linecap:round; stroke-linejoin:round;"
     id="g218">
    <text
       x="4330.71"
       y="14035.4"
       textLength="497.75"
       font-size="682.415"
       lengthAdjust="spacingAndGlyphs"
       text-anchor="middle"
       opacity="0"
       id="text212">A</text>
    <path
       d="M4208 13864 L4452 13864 "
       id="path214" />
    <path
       d="M4160 14011 L4330 13499 L4501 14011 "
       id="path216" />
  </g>
  <g
     style="fill:#000000; fill-opacity:0.0;  stroke:#000000; stroke-width:39.3701; stroke-opacity:1;  stroke-linecap:round; stroke-linejoin:round;"
     id="g220" />
  <g
     style="fill:#000000; fill-opacity:0.0;  stroke:#000000; stroke-width:59.0551; stroke-opacity:1;  stroke-linecap:round; stroke-linejoin:round;"
     id="g226">
    <text
       x="4330.71"
       y="33720.5"
       textLength="570.866"
       font-size="682.415"
       lengthAdjust="spacingAndGlyphs"
       text-anchor="middle"
       opacity="0"
       id="text222">B</text>
    <path
       d="M4367 33428 L4440 33452 L4464 33476 L4489 33525 L4489 33598 L4464 33647 L4440 33671 L4391 33696 L4196 33696 L4196 33184 L4367 33184 L4416 33208 L4440 33233 L4464 33281 L4464 33330 L4440 33379 L4416 33403 L4367 33428 L4196 33428 "
       id="path224" />
  </g>
  <g
     style="fill:#000000; fill-opacity:0.0;  stroke:#000000; stroke-width:39.3701; stroke-opacity:1;  stroke-linecap:round; stroke-linejoin:round;"
     id="g228" />
  <g
     style="fill:#000000; fill-opacity:0.0;  stroke:#000000; stroke-width:59.0551; stroke-opacity:1;  stroke-linecap:round; stroke-linejoin:round;"
     id="g234">
    <text
       x="4330.71"
       y="53405.5"
       textLength="570.866"
       font-size="682.415"
       lengthAdjust="spacingAndGlyphs"
       text-anchor="middle"
       opacity="0"
       id="text230">C</text>
    <path
       d="M4489 53332 L4464 53356 L4391 53381 L4342 53381 L4269 53356 L4221 53308 L4196 53259 L4172 53161 L4172 53088 L4196 52991 L4221 52942 L4269 52893 L4342 52869 L4391 52869 L4464 52893 L4489 52918 "
       id="path232" />
  </g>
  <g
     style="fill:#000000; fill-opacity:0.0;  stroke:#000000; stroke-width:39.3701; stroke-opacity:1;  stroke-linecap:round; stroke-linejoin:round;"
     id="g236" />
  <g
     style="fill:#000000; fill-opacity:0.0;  stroke:#000000; stroke-width:59.0551; stroke-opacity:1;  stroke-linecap:round; stroke-linejoin:round;"
     id="g242">
    <text
       x="4330.71"
       y="73090.6"
       textLength="570.866"
       font-size="682.415"
       lengthAdjust="spacingAndGlyphs"
       text-anchor="middle"
       opacity="0"
       id="text238">D</text>
    <path
       d="M4196 73066 L4196 72554 L4318 72554 L4391 72578 L4440 72627 L4464 72676 L4489 72773 L4489 72846 L4464 72944 L4440 72993 L4391 73041 L4318 73066 L4196 73066 "
       id="path240" />
  </g>
  <g
     style="fill:#000000; fill-opacity:0.0;  stroke:#000000; stroke-width:39.3701; stroke-opacity:1;  stroke-linecap:round; stroke-linejoin:round;"
     id="g244" />
  <g
     style="fill:#000000; fill-opacity:0.0;  stroke:#000000; stroke-width:59.0551; stroke-opacity:1;  stroke-linecap:round; stroke-linejoin:round;"
     id="g248">
    <path
       d="M112992 23622 L112205 23622 "
       id="path246" />
  </g>
  <g
     style="fill:#000000; fill-opacity:0.0;  stroke:#000000; stroke-width:39.3701; stroke-opacity:1;  stroke-linecap:round; stroke-linejoin:round;"
     id="g250" />
  <g
     style="fill:#000000; fill-opacity:0.0;  stroke:#000000; stroke-width:59.0551; stroke-opacity:1;  stroke-linecap:round; stroke-linejoin:round;"
     id="g254">
    <path
       d="M112992 43307 L112205 43307 "
       id="path252" />
  </g>
  <g
     style="fill:#000000; fill-opacity:0.0;  stroke:#000000; stroke-width:39.3701; stroke-opacity:1;  stroke-linecap:round; stroke-linejoin:round;"
     id="g256" />
  <g
     style="fill:#000000; fill-opacity:0.0;  stroke:#000000; stroke-width:59.0551; stroke-opacity:1;  stroke-linecap:round; stroke-linejoin:round;"
     id="g260">
    <path
       d="M112992 62992 L112205 62992 "
       id="path258" />
  </g>
  <g
     style="fill:#000000; fill-opacity:0.0;  stroke:#000000; stroke-width:39.3701; stroke-opacity:1;  stroke-linecap:round; stroke-linejoin:round;"
     id="g262" />
  <g
     style="fill:#000000; fill-opacity:0.0;  stroke:#000000; stroke-width:59.0551; stroke-opacity:1;  stroke-linecap:round; stroke-linejoin:round;"
     id="g270">
    <text
       x="112599"
       y="14035.4"
       textLength="497.75"
       font-size="682.415"
       lengthAdjust="spacingAndGlyphs"
       text-anchor="middle"
       opacity="0"
       id="text264">A</text>
    <path
       d="M112477 13864 L112721 13864 "
       id="path266" />
    <path
       d="M112428 14011 L112599 13499 L112769 14011 "
       id="path268" />
  </g>
  <g
     style="fill:#000000; fill-opacity:0.0;  stroke:#000000; stroke-width:39.3701; stroke-opacity:1;  stroke-linecap:round; stroke-linejoin:round;"
     id="g272" />
  <g
     style="fill:#000000; fill-opacity:0.0;  stroke:#000000; stroke-width:59.0551; stroke-opacity:1;  stroke-linecap:round; stroke-linejoin:round;"
     id="g278">
    <text
       x="112599"
       y="33720.5"
       textLength="570.866"
       font-size="682.415"
       lengthAdjust="spacingAndGlyphs"
       text-anchor="middle"
       opacity="0"
       id="text274">B</text>
    <path
       d="M112635 33428 L112708 33452 L112733 33476 L112757 33525 L112757 33598 L112733 33647 L112708 33671 L112660 33696 L112465 33696 L112465 33184 L112635 33184 L112684 33208 L112708 33233 L112733 33281 L112733 33330 L112708 33379 L112684 33403 L112635 33428 L112465 33428 "
       id="path276" />
  </g>
  <g
     style="fill:#000000; fill-opacity:0.0;  stroke:#000000; stroke-width:39.3701; stroke-opacity:1;  stroke-linecap:round; stroke-linejoin:round;"
     id="g280" />
  <g
     style="fill:#000000; fill-opacity:0.0;  stroke:#000000; stroke-width:59.0551; stroke-opacity:1;  stroke-linecap:round; stroke-linejoin:round;"
     id="g286">
    <text
       x="112599"
       y="53405.5"
       textLength="570.866"
       font-size="682.415"
       lengthAdjust="spacingAndGlyphs"
       text-anchor="middle"
       opacity="0"
       id="text282">C</text>
    <path
       d="M112757 53332 L112733 53356 L112660 53381 L112611 53381 L112538 53356 L112489 53308 L112465 53259 L112440 53161 L112440 53088 L112465 52991 L112489 52942 L112538 52893 L112611 52869 L112660 52869 L112733 52893 L112757 52918 "
       id="path284" />
  </g>
  <g
     style="fill:#000000; fill-opacity:0.0;  stroke:#000000; stroke-width:39.3701; stroke-opacity:1;  stroke-linecap:round; stroke-linejoin:round;"
     id="g288" />
  <g
     style="fill:#000000; fill-opacity:0.0;  stroke:#000000; stroke-width:59.0551; stroke-opacity:1;  stroke-linecap:round; stroke-linejoin:round;"
     id="g294">
    <text
       x="112599"
       y="73090.6"
       textLength="570.866"
       font-size="682.415"
       lengthAdjust="spacingAndGlyphs"
       text-anchor="middle"
       opacity="0"
       id="text290">D</text>
    <path
       d="M112465 73066 L112465 72554 L112587 72554 L112660 72578 L112708 72627 L112733 72676 L112757 72773 L112757 72846 L112733 72944 L112708 72993 L112660 73041 L112587 73066 L112465 73066 "
       id="path292" />
  </g>
  <g
     style="fill:#000000; fill-opacity:0.0;  stroke:#000000; stroke-width:39.3701; stroke-opacity:1;  stroke-linecap:round; stroke-linejoin:round;"
     id="g296" />
  <g
     style="fill:#000000; fill-opacity:0.0;  stroke:#000000; stroke-width:59.0551; stroke-opacity:1;  stroke-linecap:round; stroke-linejoin:round;"
     id="g316">
    <text
       x="78741"
       y="76321.7"
       textLength="2758.72"
       font-size="787.402"
       lengthAdjust="spacingAndGlyphs"
       text-anchor="start"
       opacity="0"
       id="text298">Date: </text>
    <path
       d="M78911 76293 L78911 75703 L79051 75703 L79136 75731 L79192 75787 L79220 75843 L79248 75956 L79248 76040 L79220 76153 L79192 76209 L79136 76265 L79051 76293 L78911 76293 "
       id="path300" />
    <path
       d="M79754 76293 L79754 75984 L79726 75928 L79670 75899 L79557 75899 L79501 75928 "
       id="path302" />
    <path
       d="M79754 76265 L79698 76293 L79557 76293 L79501 76265 L79473 76209 L79473 76153 L79501 76096 L79557 76068 L79698 76068 L79754 76040 "
       id="path304" />
    <path
       d="M79951 75899 L80176 75899 "
       id="path306" />
    <path
       d="M80036 75703 L80036 76209 L80064 76265 L80120 76293 L80176 76293 "
       id="path308" />
    <path
       d="M80598 76265 L80542 76293 L80429 76293 L80373 76265 L80345 76209 L80345 75984 L80373 75928 L80429 75899 L80542 75899 L80598 75928 L80626 75984 L80626 76040 L80345 76096 "
       id="path310" />
    <path
       d="M80879 76237 L80907 76265 L80879 76293 L80851 76265 L80879 76237 L80879 76293 "
       id="path312" />
    <path
       d="M80879 75928 L80907 75956 L80879 75984 L80851 75956 L80879 75928 L80879 75984 "
       id="path314" />
  </g>
  <g
     style="fill:#000000; fill-opacity:0.0;  stroke:#000000; stroke-width:39.3701; stroke-opacity:1;  stroke-linecap:round; stroke-linejoin:round;"
     id="g318" />
  <g
     style="fill:#000000; fill-opacity:0.0;  stroke:#000000; stroke-width:59.0551; stroke-opacity:1;  stroke-linecap:round; stroke-linejoin:round;"
     id="g322">
    <path
       d="M69685 76577 L112205 76577 "
       id="path320" />
  </g>
  <g
     style="fill:#000000; fill-opacity:0.0;  stroke:#000000; stroke-width:39.3701; stroke-opacity:1;  stroke-linecap:round; stroke-linejoin:round;"
     id="g324" />
  <g
     style="fill:#000000; fill-opacity:0.0;  stroke:#000000; stroke-width:59.0551; stroke-opacity:1;  stroke-linecap:round; stroke-linejoin:round;"
     id="g396">
    <text
       x="70079.6"
       y="77424.1"
       textLength="11448.3"
       font-size="787.402"
       lengthAdjust="spacingAndGlyphs"
       text-anchor="start"
       opacity="0"
       id="text326">KiCad E.D.A.  kicad 5.1.5</text>
    <path
       d="M70249 77395 L70249 76805 "
       id="path328" />
    <path
       d="M70587 77395 L70334 77058 "
       id="path330" />
    <path
       d="M70587 76805 L70249 77142 "
       id="path332" />
    <path
       d="M70840 77395 L70840 77002 "
       id="path334" />
    <path
       d="M70840 76805 L70812 76833 L70840 76861 L70868 76833 L70840 76805 L70840 76861 "
       id="path336" />
    <path
       d="M71458 77339 L71430 77367 L71346 77395 L71290 77395 L71205 77367 L71149 77311 L71121 77255 L71093 77142 L71093 77058 L71121 76946 L71149 76889 L71205 76833 L71290 76805 L71346 76805 L71430 76833 L71458 76861 "
       id="path338" />
    <path
       d="M71965 77395 L71965 77086 L71937 77030 L71880 77002 L71768 77002 L71712 77030 "
       id="path340" />
    <path
       d="M71965 77367 L71908 77395 L71768 77395 L71712 77367 L71683 77311 L71683 77255 L71712 77199 L71768 77171 L71908 77171 L71965 77142 "
       id="path342" />
    <path
       d="M72499 77395 L72499 76805 "
       id="path344" />
    <path
       d="M72499 77367 L72443 77395 L72330 77395 L72274 77367 L72246 77339 L72218 77283 L72218 77114 L72246 77058 L72274 77030 L72330 77002 L72443 77002 L72499 77030 "
       id="path346" />
    <path
       d="M73230 77086 L73427 77086 "
       id="path348" />
    <path
       d="M73511 77395 L73230 77395 L73230 76805 L73511 76805 "
       id="path350" />
    <path
       d="M73764 77339 L73793 77367 L73764 77395 L73736 77367 L73764 77339 L73764 77395 "
       id="path352" />
    <path
       d="M74046 77395 L74046 76805 L74186 76805 L74271 76833 L74327 76889 L74355 76946 L74383 77058 L74383 77142 L74355 77255 L74327 77311 L74271 77367 L74186 77395 L74046 77395 "
       id="path354" />
    <path
       d="M74636 77339 L74664 77367 L74636 77395 L74608 77367 L74636 77339 L74636 77395 "
       id="path356" />
    <path
       d="M74889 77227 L75171 77227 "
       id="path358" />
    <path
       d="M74833 77395 L75030 76805 L75227 77395 "
       id="path360" />
    <path
       d="M75424 77339 L75452 77367 L75424 77395 L75395 77367 L75424 77339 L75424 77395 "
       id="path362" />
    <path
       d="M76605 77395 L76605 76805 "
       id="path364" />
    <path
       d="M76661 77171 L76830 77395 "
       id="path366" />
    <path
       d="M76830 77002 L76605 77227 "
       id="path368" />
    <path
       d="M77083 77395 L77083 77002 "
       id="path370" />
    <path
       d="M77083 76805 L77055 76833 L77083 76861 L77111 76833 L77083 76805 L77083 76861 "
       id="path372" />
    <path
       d="M77617 77367 L77561 77395 L77448 77395 L77392 77367 L77364 77339 L77336 77283 L77336 77114 L77364 77058 L77392 77030 L77448 77002 L77561 77002 L77617 77030 "
       id="path374" />
    <path
       d="M78123 77395 L78123 77086 L78095 77030 L78039 77002 L77926 77002 L77870 77030 "
       id="path376" />
    <path
       d="M78123 77367 L78067 77395 L77926 77395 L77870 77367 L77842 77311 L77842 77255 L77870 77199 L77926 77171 L78067 77171 L78123 77142 "
       id="path378" />
    <path
       d="M78658 77395 L78658 76805 "
       id="path380" />
    <path
       d="M78658 77367 L78601 77395 L78489 77395 L78433 77367 L78404 77339 L78376 77283 L78376 77114 L78404 77058 L78433 77030 L78489 77002 L78601 77002 L78658 77030 "
       id="path382" />
    <path
       d="M79670 76805 L79389 76805 L79361 77086 L79389 77058 L79445 77030 L79586 77030 L79642 77058 L79670 77086 L79698 77142 L79698 77283 L79670 77339 L79642 77367 L79586 77395 L79445 77395 L79389 77367 L79361 77339 "
       id="path384" />
    <path
       d="M79951 77339 L79979 77367 L79951 77395 L79923 77367 L79951 77339 L79951 77395 "
       id="path386" />
    <path
       d="M80542 77395 L80204 77395 "
       id="path388" />
    <path
       d="M80373 77395 L80373 76805 L80317 76889 L80260 76946 L80204 76974 "
       id="path390" />
    <path
       d="M80795 77339 L80823 77367 L80795 77395 L80767 77367 L80795 77339 L80795 77395 "
       id="path392" />
    <path
       d="M81357 76805 L81076 76805 L81048 77086 L81076 77058 L81132 77030 L81273 77030 L81329 77058 L81357 77086 L81385 77142 L81385 77283 L81357 77339 L81329 77367 L81273 77395 L81132 77395 L81076 77367 L81048 77339 "
       id="path394" />
  </g>
  <g
     style="fill:#000000; fill-opacity:0.0;  stroke:#000000; stroke-width:39.3701; stroke-opacity:1;  stroke-linecap:round; stroke-linejoin:round;"
     id="g398" />
  <g
     style="fill:#000000; fill-opacity:0.0;  stroke:#000000; stroke-width:59.0551; stroke-opacity:1;  stroke-linecap:round; stroke-linejoin:round;"
     id="g402">
    <path
       d="M69685 75396 L112205 75396 "
       id="path400" />
  </g>
  <g
     style="fill:#000000; fill-opacity:0.0;  stroke:#000000; stroke-width:39.3701; stroke-opacity:1;  stroke-linecap:round; stroke-linejoin:round;"
     id="g404" />
  <g
     style="fill:#000000; fill-opacity:0.0;  stroke:#000000; stroke-width:118.11; stroke-opacity:1;  stroke-linecap:round; stroke-linejoin:round;"
     id="g420">
    <text
       x="103544"
       y="76321.7"
       textLength="2336.9"
       font-size="787.402"
       lengthAdjust="spacingAndGlyphs"
       text-anchor="start"
       opacity="0"
       id="text406">Rev: </text>
    <path
       d="M104099 76293 L103902 76012 "
       id="path408" />
    <path
       d="M103761 76293 L103761 75703 L103986 75703 L104042 75731 L104070 75759 L104099 75815 L104099 75899 L104070 75956 L104042 75984 L103986 76012 L103761 76012 "
       id="path410" />
    <path
       d="M104577 76265 L104520 76293 L104408 76293 L104352 76265 L104323 76209 L104323 75984 L104352 75928 L104408 75899 L104520 75899 L104577 75928 L104605 75984 L104605 76040 L104323 76096 "
       id="path412" />
    <path
       d="M104802 75899 L104942 76293 L105083 75899 "
       id="path414" />
    <path
       d="M105308 76237 L105336 76265 L105308 76293 L105280 76265 L105308 76237 L105308 76293 "
       id="path416" />
    <path
       d="M105308 75928 L105336 75956 L105308 75984 L105280 75956 L105308 75928 L105308 75984 "
       id="path418" />
  </g>
  <g
     style="fill:#000000; fill-opacity:0.0;  stroke:#000000; stroke-width:39.3701; stroke-opacity:1;  stroke-linecap:round; stroke-linejoin:round;"
     id="g422" />
  <g
     style="fill:#000000; fill-opacity:0.0;  stroke:#000000; stroke-width:59.0551; stroke-opacity:1;  stroke-linecap:round; stroke-linejoin:round;"
     id="g448">
    <text
       x="70079.6"
       y="76321.7"
       textLength="3781.21"
       font-size="787.402"
       lengthAdjust="spacingAndGlyphs"
       text-anchor="start"
       opacity="0"
       id="text424">Size: A4</text>
    <path
       d="M70221 76265 L70305 76293 L70446 76293 L70502 76265 L70530 76237 L70559 76181 L70559 76124 L70530 76068 L70502 76040 L70446 76012 L70334 75984 L70277 75956 L70249 75928 L70221 75871 L70221 75815 L70249 75759 L70277 75731 L70334 75703 L70474 75703 L70559 75731 "
       id="path426" />
    <path
       d="M70812 76293 L70812 75899 "
       id="path428" />
    <path
       d="M70812 75703 L70784 75731 L70812 75759 L70840 75731 L70812 75703 L70812 75759 "
       id="path430" />
    <path
       d="M71037 75899 L71346 75899 L71037 76293 L71346 76293 "
       id="path432" />
    <path
       d="M71796 76265 L71740 76293 L71627 76293 L71571 76265 L71543 76209 L71543 75984 L71571 75928 L71627 75899 L71740 75899 L71796 75928 L71824 75984 L71824 76040 L71543 76096 "
       id="path434" />
    <path
       d="M72077 76237 L72105 76265 L72077 76293 L72049 76265 L72077 76237 L72077 76293 "
       id="path436" />
    <path
       d="M72077 75928 L72105 75956 L72077 75984 L72049 75956 L72077 75928 L72077 75984 "
       id="path438" />
    <path
       d="M72780 76124 L73061 76124 "
       id="path440" />
    <path
       d="M72724 76293 L72921 75703 L73118 76293 "
       id="path442" />
    <path
       d="M73568 75899 L73568 76293 "
       id="path444" />
    <path
       d="M73427 75674 L73286 76096 L73652 76096 "
       id="path446" />
  </g>
  <g
     style="fill:#000000; fill-opacity:0.0;  stroke:#000000; stroke-width:39.3701; stroke-opacity:1;  stroke-linecap:round; stroke-linejoin:round;"
     id="g450" />
  <g
     style="fill:#000000; fill-opacity:0.0;  stroke:#000000; stroke-width:59.0551; stroke-opacity:1;  stroke-linecap:round; stroke-linejoin:round;"
     id="g474">
    <text
       x="103544"
       y="77424.1"
       textLength="3349.27"
       font-size="787.402"
       lengthAdjust="spacingAndGlyphs"
       text-anchor="start"
       opacity="0"
       id="text452">Id: 1/1</text>
    <path
       d="M103714 77395 L103714 76805 "
       id="path454" />
    <path
       d="M104248 77395 L104248 76805 "
       id="path456" />
    <path
       d="M104248 77367 L104192 77395 L104079 77395 L104023 77367 L103995 77339 L103967 77283 L103967 77114 L103995 77058 L104023 77030 L104079 77002 L104192 77002 L104248 77030 "
       id="path458" />
    <path
       d="M104529 77339 L104557 77367 L104529 77395 L104501 77367 L104529 77339 L104529 77395 "
       id="path460" />
    <path
       d="M104529 77030 L104557 77058 L104529 77086 L104501 77058 L104529 77030 L104529 77086 "
       id="path462" />
    <path
       d="M105570 77395 L105232 77395 "
       id="path464" />
    <path
       d="M105401 77395 L105401 76805 L105345 76889 L105289 76946 L105232 76974 "
       id="path466" />
    <path
       d="M106245 76777 L105739 77536 "
       id="path468" />
    <path
       d="M106751 77395 L106413 77395 "
       id="path470" />
    <path
       d="M106582 77395 L106582 76805 L106526 76889 L106470 76946 L106413 76974 "
       id="path472" />
  </g>
  <g
     style="fill:#000000; fill-opacity:0.0;  stroke:#000000; stroke-width:39.3701; stroke-opacity:1;  stroke-linecap:round; stroke-linejoin:round;"
     id="g476" />
  <g
     style="fill:#000000; fill-opacity:0.0;  stroke:#000000; stroke-width:59.0551; stroke-opacity:1;  stroke-linecap:round; stroke-linejoin:round;"
     id="g480">
    <path
       d="M69685 73821 L112205 73821 "
       id="path478" />
  </g>
  <g
     style="fill:#000000; fill-opacity:0.0;  stroke:#000000; stroke-width:39.3701; stroke-opacity:1;  stroke-linecap:round; stroke-linejoin:round;"
     id="g482" />
  <g
     style="fill:#000000; fill-opacity:0.0;  stroke:#000000; stroke-width:157.48; stroke-opacity:1;  stroke-linecap:round; stroke-linejoin:round;"
     id="g506">
    <text
       x="70079.6"
       y="74924.1"
       textLength="3701.14"
       font-size="1049.87"
       lengthAdjust="spacingAndGlyphs"
       text-anchor="start"
       opacity="0"
       id="text484">Title: </text>
    <path
       d="M70360 74099 L70810 74099 "
       id="path486" />
    <path
       d="M70486 74886 L70585 74099 "
       id="path488" />
    <path
       d="M70974 74886 L71039 74361 "
       id="path490" />
    <path
       d="M71072 74099 L71030 74136 L71063 74174 L71105 74136 L71072 74099 L71063 74174 "
       id="path492" />
    <path
       d="M71302 74361 L71602 74361 "
       id="path494" />
    <path
       d="M71447 74099 L71363 74774 L71391 74849 L71461 74886 L71536 74886 "
       id="path496" />
    <path
       d="M71911 74886 L71841 74849 L71813 74774 L71897 74099 "
       id="path498" />
    <path
       d="M72516 74849 L72436 74886 L72286 74886 L72216 74849 L72187 74774 L72225 74474 L72272 74399 L72352 74361 L72501 74361 L72572 74399 L72600 74474 L72591 74549 L72206 74624 "
       id="path500" />
    <path
       d="M72895 74811 L72928 74849 L72886 74886 L72853 74849 L72895 74811 L72886 74886 "
       id="path502" />
    <path
       d="M72947 74399 L72980 74436 L72937 74474 L72905 74436 L72947 74399 L72937 74474 "
       id="path504" />
  </g>
  <g
     style="fill:#000000; fill-opacity:0.0;  stroke:#000000; stroke-width:39.3701; stroke-opacity:1;  stroke-linecap:round; stroke-linejoin:round;"
     id="g508" />
  <g
     style="fill:#000000; fill-opacity:0.0;  stroke:#000000; stroke-width:59.0551; stroke-opacity:1;  stroke-linecap:round; stroke-linejoin:round;"
     id="g586">
    <text
       x="70079.6"
       y="73408.3"
       textLength="11087.7"
       font-size="787.402"
       lengthAdjust="spacingAndGlyphs"
       text-anchor="start"
       opacity="0"
       id="text510">File: bbwrover.kicad_pcb</text>
    <path
       d="M70446 73070 L70249 73070 "
       id="path512" />
    <path
       d="M70249 73380 L70249 72789 L70530 72789 "
       id="path514" />
    <path
       d="M70755 73380 L70755 72986 "
       id="path516" />
    <path
       d="M70755 72789 L70727 72817 L70755 72845 L70784 72817 L70755 72789 L70755 72845 "
       id="path518" />
    <path
       d="M71121 73380 L71065 73352 L71037 73295 L71037 72789 "
       id="path520" />
    <path
       d="M71571 73352 L71515 73380 L71402 73380 L71346 73352 L71318 73295 L71318 73070 L71346 73014 L71402 72986 L71515 72986 L71571 73014 L71599 73070 L71599 73127 L71318 73183 "
       id="path522" />
    <path
       d="M71852 73323 L71880 73352 L71852 73380 L71824 73352 L71852 73323 L71852 73380 "
       id="path524" />
    <path
       d="M71852 73014 L71880 73042 L71852 73070 L71824 73042 L71852 73014 L71852 73070 "
       id="path526" />
    <path
       d="M72583 73380 L72583 72789 "
       id="path528" />
    <path
       d="M72583 73014 L72640 72986 L72752 72986 L72808 73014 L72836 73042 L72865 73099 L72865 73267 L72836 73323 L72808 73352 L72752 73380 L72640 73380 L72583 73352 "
       id="path530" />
    <path
       d="M73118 73380 L73118 72789 "
       id="path532" />
    <path
       d="M73118 73014 L73174 72986 L73286 72986 L73343 73014 L73371 73042 L73399 73099 L73399 73267 L73371 73323 L73343 73352 L73286 73380 L73174 73380 L73118 73352 "
       id="path534" />
    <path
       d="M73596 72986 L73708 73380 L73821 73099 L73933 73380 L74046 72986 "
       id="path536" />
    <path
       d="M74271 73380 L74271 72986 "
       id="path538" />
    <path
       d="M74271 73099 L74299 73042 L74327 73014 L74383 72986 L74439 72986 "
       id="path540" />
    <path
       d="M74721 73380 L74664 73352 L74636 73323 L74608 73267 L74608 73099 L74636 73042 L74664 73014 L74721 72986 L74805 72986 L74861 73014 L74889 73042 L74917 73099 L74917 73267 L74889 73323 L74861 73352 L74805 73380 L74721 73380 "
       id="path542" />
    <path
       d="M75114 72986 L75255 73380 L75395 72986 "
       id="path544" />
    <path
       d="M75845 73352 L75789 73380 L75677 73380 L75620 73352 L75592 73295 L75592 73070 L75620 73014 L75677 72986 L75789 72986 L75845 73014 L75874 73070 L75874 73127 L75592 73183 "
       id="path546" />
    <path
       d="M76127 73380 L76127 72986 "
       id="path548" />
    <path
       d="M76127 73099 L76155 73042 L76183 73014 L76239 72986 L76295 72986 "
       id="path550" />
    <path
       d="M76492 73323 L76520 73352 L76492 73380 L76464 73352 L76492 73323 L76492 73380 "
       id="path552" />
    <path
       d="M76773 73380 L76773 72789 "
       id="path554" />
    <path
       d="M76830 73155 L76998 73380 "
       id="path556" />
    <path
       d="M76998 72986 L76773 73211 "
       id="path558" />
    <path
       d="M77251 73380 L77251 72986 "
       id="path560" />
    <path
       d="M77251 72789 L77223 72817 L77251 72845 L77280 72817 L77251 72789 L77251 72845 "
       id="path562" />
    <path
       d="M77786 73352 L77730 73380 L77617 73380 L77561 73352 L77533 73323 L77505 73267 L77505 73099 L77533 73042 L77561 73014 L77617 72986 L77730 72986 L77786 73014 "
       id="path564" />
    <path
       d="M78292 73380 L78292 73070 L78264 73014 L78208 72986 L78095 72986 L78039 73014 "
       id="path566" />
    <path
       d="M78292 73352 L78236 73380 L78095 73380 L78039 73352 L78011 73295 L78011 73239 L78039 73183 L78095 73155 L78236 73155 L78292 73127 "
       id="path568" />
    <path
       d="M78826 73380 L78826 72789 "
       id="path570" />
    <path
       d="M78826 73352 L78770 73380 L78658 73380 L78601 73352 L78573 73323 L78545 73267 L78545 73099 L78573 73042 L78601 73014 L78658 72986 L78770 72986 L78826 73014 "
       id="path572" />
    <path
       d="M78967 73436 L79417 73436 "
       id="path574" />
    <path
       d="M79557 72986 L79557 73577 "
       id="path576" />
    <path
       d="M79557 73014 L79614 72986 L79726 72986 L79782 73014 L79811 73042 L79839 73099 L79839 73267 L79811 73323 L79782 73352 L79726 73380 L79614 73380 L79557 73352 "
       id="path578" />
    <path
       d="M80345 73352 L80289 73380 L80176 73380 L80120 73352 L80092 73323 L80064 73267 L80064 73099 L80092 73042 L80120 73014 L80176 72986 L80289 72986 L80345 73014 "
       id="path580" />
    <path
       d="M80598 73380 L80598 72789 "
       id="path582" />
    <path
       d="M80598 73014 L80654 72986 L80767 72986 L80823 73014 L80851 73042 L80879 73099 L80879 73267 L80851 73323 L80823 73352 L80767 73380 L80654 73380 L80598 73352 "
       id="path584" />
  </g>
  <g
     style="fill:#000000; fill-opacity:0.0;  stroke:#000000; stroke-width:39.3701; stroke-opacity:1;  stroke-linecap:round; stroke-linejoin:round;"
     id="g588" />
  <g
     style="fill:#000000; fill-opacity:0.0;  stroke:#000000; stroke-width:59.0551; stroke-opacity:1;  stroke-linecap:round; stroke-linejoin:round;"
     id="g592">
    <path
       d="M69685 71459 L112205 71459 "
       id="path590" />
  </g>
  <g
     style="fill:#000000; fill-opacity:0.0;  stroke:#000000; stroke-width:39.3701; stroke-opacity:1;  stroke-linecap:round; stroke-linejoin:round;"
     id="g594" />
  <g
     style="fill:#000000; fill-opacity:0.0;  stroke:#000000; stroke-width:59.0551; stroke-opacity:1;  stroke-linecap:round; stroke-linejoin:round;"
     id="g616">
    <text
       x="70079.6"
       y="72345.4"
       textLength="3236.78"
       font-size="787.402"
       lengthAdjust="spacingAndGlyphs"
       text-anchor="start"
       opacity="0"
       id="text596">Sheet: </text>
    <path
       d="M70221 72289 L70305 72317 L70446 72317 L70502 72289 L70530 72260 L70559 72204 L70559 72148 L70530 72092 L70502 72064 L70446 72036 L70334 72007 L70277 71979 L70249 71951 L70221 71895 L70221 71839 L70249 71782 L70277 71754 L70334 71726 L70474 71726 L70559 71754 "
       id="path598" />
    <path
       d="M70812 72317 L70812 71726 "
       id="path600" />
    <path
       d="M71065 72317 L71065 72007 L71037 71951 L70980 71923 L70896 71923 L70840 71951 L70812 71979 "
       id="path602" />
    <path
       d="M71571 72289 L71515 72317 L71402 72317 L71346 72289 L71318 72232 L71318 72007 L71346 71951 L71402 71923 L71515 71923 L71571 71951 L71599 72007 L71599 72064 L71318 72120 "
       id="path604" />
    <path
       d="M72077 72289 L72021 72317 L71908 72317 L71852 72289 L71824 72232 L71824 72007 L71852 71951 L71908 71923 L72021 71923 L72077 71951 L72105 72007 L72105 72064 L71824 72120 "
       id="path606" />
    <path
       d="M72274 71923 L72499 71923 "
       id="path608" />
    <path
       d="M72358 71726 L72358 72232 L72386 72289 L72443 72317 L72499 72317 "
       id="path610" />
    <path
       d="M72696 72260 L72724 72289 L72696 72317 L72668 72289 L72696 72260 L72696 72317 "
       id="path612" />
    <path
       d="M72696 71951 L72724 71979 L72696 72007 L72668 71979 L72696 71951 L72696 72007 "
       id="path614" />
  </g>
  <g
     style="fill:#000000; fill-opacity:0.0;  stroke:#000000; stroke-width:39.3701; stroke-opacity:1;  stroke-linecap:round; stroke-linejoin:round;"
     id="g618" />
  <g
     style="fill:#000000; fill-opacity:0.0;  stroke:#000000; stroke-width:59.0551; stroke-opacity:1;  stroke-linecap:round; stroke-linejoin:round;"
     id="g622">
    <path
       d="M77559 75396 L77559 76577 "
       id="path620" />
  </g>
  <g
     style="fill:#000000; fill-opacity:0.0;  stroke:#000000; stroke-width:39.3701; stroke-opacity:1;  stroke-linecap:round; stroke-linejoin:round;"
     id="g624" />
  <g
     style="fill:#000000; fill-opacity:0.0;  stroke:#000000; stroke-width:59.0551; stroke-opacity:1;  stroke-linecap:round; stroke-linejoin:round;"
     id="g628">
    <path
       d="M102756 75396 L102756 77955 "
       id="path626" />
  </g>
  <g
     style="fill:#000000; fill-opacity:1.0;  stroke:#000000; stroke-width:0; stroke-opacity:1;  stroke-linecap:round; stroke-linejoin:round;"
     id="g808">
    <path
       style="fill:#000000; fill-opacity:1.0;  stroke:#000000; stroke-width:0; stroke-opacity:1;  stroke-linecap:round; stroke-linejoin:round;fill-rule:evenodd;"
       d="M 46566.3,48317.3 46580,48321.4 46592.6,48328.2 46603.7,48337.3 46612.8,48348.3 46619.5,48361 46623.7,48374.7 46625.3,48391.4 46625.3,48842.8 46623.7,48859.6 46619.5,48873.3 46612.8,48885.9 46603.7,48897 46592.6,48906.1 46580,48912.8 46566.3,48917 46549.5,48918.6 45970.1,48918.6 45953.4,48917 45939.7,48912.8 45927.1,48906.1 45916,48897 45906.9,48885.9 45900.2,48873.3 45896,48859.6 45894.4,48842.8 45894.4,48391.4 45896,48374.7 45900.2,48361 45906.9,48348.3 45916,48337.3 45927.1,48328.2 45939.7,48321.4 45953.4,48317.3 45970.1,48315.6 46549.5,48315.6 Z"
       id="path630" />
    <path
       style="fill:#000000; fill-opacity:1.0;  stroke:#000000; stroke-width:0; stroke-opacity:1;  stroke-linecap:round; stroke-linejoin:round;fill-rule:evenodd;"
       d="M 51802.5,48317.3 51816.2,48321.4 51828.8,48328.2 51839.9,48337.3 51849,48348.3 51855.7,48361 51859.9,48374.7 51861.6,48391.4 51861.6,48842.8 51859.9,48859.6 51855.7,48873.3 51849,48885.9 51839.9,48897 51828.8,48906.1 51816.2,48912.8 51802.5,48917 51785.8,48918.6 51206.4,48918.6 51189.7,48917 51175.9,48912.8 51163.3,48906.1 51152.2,48897 51143.1,48885.9 51136.4,48873.3 51132.2,48859.6 51130.6,48842.8 51130.6,48391.4 51132.2,48374.7 51136.4,48361 51143.1,48348.3 51152.2,48337.3 51163.3,48328.2 51175.9,48321.4 51189.7,48317.3 51206.4,48315.6 51785.8,48315.6 Z"
       id="path632" />
    <path
       style="fill:#000000; fill-opacity:1.0;  stroke:#000000; stroke-width:0; stroke-opacity:1;  stroke-linecap:round; stroke-linejoin:round;fill-rule:evenodd;"
       d="M 55227.7,48317.3 55241.4,48321.4 55254,48328.2 55265.1,48337.3 55274.2,48348.3 55280.9,48361 55285.1,48374.7 55286.7,48391.4 55286.7,48842.8 55285.1,48859.6 55280.9,48873.3 55274.2,48885.9 55265.1,48897 55254,48906.1 55241.4,48912.8 55227.7,48917 55211,48918.6 54631.6,48918.6 54614.9,48917 54601.1,48912.8 54588.5,48906.1 54577.4,48897 54568.3,48885.9 54561.6,48873.3 54557.4,48859.6 54555.8,48842.8 54555.8,48391.4 54557.4,48374.7 54561.6,48361 54568.3,48348.3 54577.4,48337.3 54588.5,48328.2 54601.1,48321.4 54614.9,48317.3 54631.6,48315.6 55211,48315.6 Z"
       id="path634" />
    <path
       style="fill:#000000; fill-opacity:1.0;  stroke:#000000; stroke-width:0; stroke-opacity:1;  stroke-linecap:round; stroke-linejoin:round;fill-rule:evenodd;"
       d="M 58269.1,47807.6 58333.8,47834.4 58392.1,47873.4 58441.6,47922.9 58480.5,47981.1 58507.3,48045.9 58521,48114.6 58521,48184.6 58507.3,48253.3 58480.5,48318.1 58441.6,48376.3 58392.1,48425.9 58333.8,48464.8 58269.1,48491.6 58200.4,48505.3 58130.3,48505.3 58061.6,48491.6 57996.9,48464.8 57938.6,48425.9 57889.1,48376.3 57850.2,48318.1 57823.4,48253.3 57809.7,48184.6 57809.7,48114.6 57823.4,48045.9 57850.2,47981.1 57889.1,47922.9 57938.6,47873.4 57996.9,47834.4 58061.6,47807.6 58130.3,47794 58200.4,47794 Z"
       id="path636" />
    <path
       style="fill:#000000; fill-opacity:1.0;  stroke:#000000; stroke-width:0; stroke-opacity:1;  stroke-linecap:round; stroke-linejoin:round;fill-rule:evenodd;"
       d="M 57521,48505.3 56809.7,48505.3 56809.7,47794 57521,47794 Z"
       id="path638" />
    <path
       style="fill:#000000; fill-opacity:1.0;  stroke:#000000; stroke-width:0; stroke-opacity:1;  stroke-linecap:round; stroke-linejoin:round;fill-rule:evenodd;"
       d="M 51802.5,47146 51816.2,47150.2 51828.8,47156.9 51839.9,47166 51849,47177.1 51855.7,47189.7 51859.9,47203.4 51861.6,47220.1 51861.6,47671.6 51859.9,47688.3 51855.7,47702 51849,47714.6 51839.9,47725.7 51828.8,47734.8 51816.2,47741.6 51802.5,47745.7 51785.8,47747.4 51206.4,47747.4 51189.7,47745.7 51175.9,47741.6 51163.3,47734.8 51152.2,47725.7 51143.1,47714.6 51136.4,47702 51132.2,47688.3 51130.6,47671.6 51130.6,47220.1 51132.2,47203.4 51136.4,47189.7 51143.1,47177.1 51152.2,47166 51163.3,47156.9 51175.9,47150.2 51189.7,47146 51206.4,47144.4 51785.8,47144.4 Z"
       id="path640" />
    <path
       style="fill:#000000; fill-opacity:1.0;  stroke:#000000; stroke-width:0; stroke-opacity:1;  stroke-linecap:round; stroke-linejoin:round;fill-rule:evenodd;"
       d="M 55227.7,47146 55241.4,47150.2 55254,47156.9 55265.1,47166 55274.2,47177.1 55280.9,47189.7 55285.1,47203.4 55286.7,47220.1 55286.7,47671.6 55285.1,47688.3 55280.9,47702 55274.2,47714.6 55265.1,47725.7 55254,47734.8 55241.4,47741.6 55227.7,47745.7 55211,47747.4 54631.6,47747.4 54614.9,47745.7 54601.1,47741.6 54588.5,47734.8 54577.4,47725.7 54568.3,47714.6 54561.6,47702 54557.4,47688.3 54555.8,47671.6 54555.8,47220.1 54557.4,47203.4 54561.6,47189.7 54568.3,47177.1 54577.4,47166 54588.5,47156.9 54601.1,47150.2 54614.9,47146 54631.6,47144.4 55211,47144.4 Z"
       id="path642" />
    <path
       style="fill:#000000; fill-opacity:1.0;  stroke:#000000; stroke-width:0; stroke-opacity:1;  stroke-linecap:round; stroke-linejoin:round;fill-rule:evenodd;"
       d="M 46566.3,47146 46580,47150.2 46592.6,47156.9 46603.7,47166 46612.8,47177.1 46619.5,47189.7 46623.7,47203.4 46625.3,47220.1 46625.3,47671.6 46623.7,47688.3 46619.5,47702 46612.8,47714.6 46603.7,47725.7 46592.6,47734.8 46580,47741.6 46566.3,47745.7 46549.5,47747.4 45970.1,47747.4 45953.4,47745.7 45939.7,47741.6 45927.1,47734.8 45916,47725.7 45906.9,47714.6 45900.2,47702 45896,47688.3 45894.4,47671.6 45894.4,47220.1 45896,47203.4 45900.2,47189.7 45906.9,47177.1 45916,47166 45927.1,47156.9 45939.7,47150.2 45953.4,47146 45970.1,47144.4 46549.5,47144.4 Z"
       id="path644" />
    <path
       style="fill:#000000; fill-opacity:1.0;  stroke:#000000; stroke-width:0; stroke-opacity:1;  stroke-linecap:round; stroke-linejoin:round;fill-rule:evenodd;"
       d="M 43332.1,46256.4 43396.8,46283.3 43455.1,46322.2 43504.6,46371.7 43543.5,46430 43570.3,46494.7 43584,46563.4 43584,46633.5 43570.3,46702.2 43543.5,46766.9 43504.6,46825.1 43455.1,46874.7 43396.8,46913.6 43332.1,46940.4 43263.4,46954.1 43193.3,46954.1 43124.6,46940.4 43059.9,46913.6 43001.6,46874.7 42952.1,46825.1 42913.2,46766.9 42886.4,46702.2 42872.7,46633.5 42872.7,46563.4 42886.4,46494.7 42913.2,46430 42952.1,46371.7 43001.6,46322.2 43059.9,46283.3 43124.6,46256.4 43193.3,46242.8 43263.4,46242.8 Z"
       id="path646" />
    <path
       style="fill:#000000; fill-opacity:1.0;  stroke:#000000; stroke-width:0; stroke-opacity:1;  stroke-linecap:round; stroke-linejoin:round;fill-rule:evenodd;"
       d="M 60025,46177.7 60089.7,46204.5 60148,46243.4 60197.5,46293 60236.4,46351.2 60263.2,46415.9 60276.9,46484.7 60276.9,46554.7 60263.2,46623.4 60236.4,46688.1 60197.5,46746.4 60148,46795.9 60089.7,46834.9 60025,46861.7 59956.3,46875.3 59886.2,46875.3 59817.5,46861.7 59752.8,46834.9 59694.5,46795.9 59645,46746.4 59606.1,46688.1 59579.3,46623.4 59565.6,46554.7 59565.6,46484.7 59579.3,46415.9 59606.1,46351.2 59645,46293 59694.5,46243.4 59752.8,46204.5 59817.5,46177.7 59886.2,46164 59956.3,46164 Z"
       id="path648" />
    <path
       style="fill:#000000; fill-opacity:1.0;  stroke:#000000; stroke-width:0; stroke-opacity:1;  stroke-linecap:round; stroke-linejoin:round;fill-rule:evenodd;"
       d="M 47363.6,45760.4 47428.3,45787.2 47486.6,45826.1 47536.1,45875.7 47575,45933.9 47601.8,45998.6 47615.5,46067.3 47615.5,46137.4 47601.8,46206.1 47575,46270.8 47536.1,46329.1 47486.6,46378.6 47428.3,46417.5 47363.6,46444.3 47294.9,46458 47224.8,46458 47156.1,46444.3 47091.4,46417.5 47033.1,46378.6 46983.6,46329.1 46944.7,46270.8 46917.9,46206.1 46904.2,46137.4 46904.2,46067.3 46917.9,45998.6 46944.7,45933.9 46983.6,45875.7 47033.1,45826.1 47091.4,45787.2 47156.1,45760.4 47224.8,45746.7 47294.9,45746.7 Z"
       id="path650" />
    <path
       style="fill:#000000; fill-opacity:1.0;  stroke:#000000; stroke-width:0; stroke-opacity:1;  stroke-linecap:round; stroke-linejoin:round;fill-rule:evenodd;"
       d="M 46615.5,46458 45904.2,46458 45904.2,45746.7 46615.5,45746.7 Z"
       id="path652" />
    <path
       style="fill:#000000; fill-opacity:1.0;  stroke:#000000; stroke-width:0; stroke-opacity:1;  stroke-linecap:round; stroke-linejoin:round;fill-rule:evenodd;"
       d="M 55276.9,46458 54565.6,46458 54565.6,45746.7 55276.9,45746.7 Z"
       id="path654" />
    <path
       style="fill:#000000; fill-opacity:1.0;  stroke:#000000; stroke-width:0; stroke-opacity:1;  stroke-linecap:round; stroke-linejoin:round;fill-rule:evenodd;"
       d="M 56025,45760.4 56089.7,45787.2 56148,45826.1 56197.5,45875.7 56236.4,45933.9 56263.2,45998.6 56276.9,46067.3 56276.9,46137.4 56263.2,46206.1 56236.4,46270.8 56197.5,46329.1 56148,46378.6 56089.7,46417.5 56025,46444.3 55956.3,46458 55886.2,46458 55817.5,46444.3 55752.8,46417.5 55694.5,46378.6 55645,46329.1 55606.1,46270.8 55579.3,46206.1 55565.6,46137.4 55565.6,46067.3 55579.3,45998.6 55606.1,45933.9 55645,45875.7 55694.5,45826.1 55752.8,45787.2 55817.5,45760.4 55886.2,45746.7 55956.3,45746.7 Z"
       id="path656" />
    <path
       style="fill:#000000; fill-opacity:1.0;  stroke:#000000; stroke-width:0; stroke-opacity:1;  stroke-linecap:round; stroke-linejoin:round;fill-rule:evenodd;"
       d="M 57025,45760.4 57089.7,45787.2 57148,45826.1 57197.5,45875.7 57236.4,45933.9 57263.2,45998.6 57276.9,46067.3 57276.9,46137.4 57263.2,46206.1 57236.4,46270.8 57197.5,46329.1 57148,46378.6 57089.7,46417.5 57025,46444.3 56956.3,46458 56886.2,46458 56817.5,46444.3 56752.8,46417.5 56694.5,46378.6 56645,46329.1 56606.1,46270.8 56579.3,46206.1 56565.6,46137.4 56565.6,46067.3 56579.3,45998.6 56606.1,45933.9 56645,45875.7 56694.5,45826.1 56752.8,45787.2 56817.5,45760.4 56886.2,45746.7 56956.3,45746.7 Z"
       id="path658" />
    <path
       style="fill:#000000; fill-opacity:1.0;  stroke:#000000; stroke-width:0; stroke-opacity:1;  stroke-linecap:round; stroke-linejoin:round;fill-rule:evenodd;"
       d="M 48363.6,45760.4 48428.3,45787.2 48486.6,45826.1 48536.1,45875.7 48575,45933.9 48601.8,45998.6 48615.5,46067.3 48615.5,46137.4 48601.8,46206.1 48575,46270.8 48536.1,46329.1 48486.6,46378.6 48428.3,46417.5 48363.6,46444.3 48294.9,46458 48224.8,46458 48156.1,46444.3 48091.4,46417.5 48033.1,46378.6 47983.6,46329.1 47944.7,46270.8 47917.9,46206.1 47904.2,46137.4 47904.2,46067.3 47917.9,45998.6 47944.7,45933.9 47983.6,45875.7 48033.1,45826.1 48091.4,45787.2 48156.1,45760.4 48224.8,45746.7 48294.9,45746.7 Z"
       id="path660" />
    <path
       style="fill:#000000; fill-opacity:1.0;  stroke:#000000; stroke-width:0; stroke-opacity:1;  stroke-linecap:round; stroke-linejoin:round;fill-rule:evenodd;"
       d="M 51192.2,45266.1 51206,45270.2 51218.6,45277 51229.7,45286.1 51238.8,45297.2 51245.5,45309.8 51249.7,45323.5 51251.3,45340.2 51251.3,45919.6 51249.7,45936.3 51245.5,45950 51238.8,45962.7 51229.7,45973.8 51218.6,45982.8 51206,45989.6 51192.2,45993.8 51175.5,45995.4 50724.1,45995.4 50707.4,45993.8 50693.7,45989.6 50681,45982.8 50669.9,45973.8 50660.9,45962.7 50654.1,45950 50649.9,45936.3 50648.3,45919.6 50648.3,45340.2 50649.9,45323.5 50654.1,45309.8 50660.9,45297.2 50669.9,45286.1 50681,45277 50693.7,45270.2 50707.4,45266.1 50724.1,45264.4 51175.5,45264.4 Z"
       id="path662" />
    <path
       style="fill:#000000; fill-opacity:1.0;  stroke:#000000; stroke-width:0; stroke-opacity:1;  stroke-linecap:round; stroke-linejoin:round;fill-rule:evenodd;"
       d="M 52363.5,45266.1 52377.2,45270.2 52389.8,45277 52400.9,45286.1 52410,45297.2 52416.8,45309.8 52420.9,45323.5 52422.6,45340.2 52422.6,45919.6 52420.9,45936.3 52416.8,45950 52410,45962.7 52400.9,45973.8 52389.8,45982.8 52377.2,45989.6 52363.5,45993.8 52346.8,45995.4 51895.3,45995.4 51878.6,45993.8 51864.9,45989.6 51852.3,45982.8 51841.2,45973.8 51832.1,45962.7 51825.4,45950 51821.2,45936.3 51819.6,45919.6 51819.6,45340.2 51821.2,45323.5 51825.4,45309.8 51832.1,45297.2 51841.2,45286.1 51852.3,45277 51864.9,45270.2 51878.6,45266.1 51895.3,45264.4 52346.8,45264.4 Z"
       id="path664" />
    <path
       style="fill:#000000; fill-opacity:1.0;  stroke:#000000; stroke-width:0; stroke-opacity:1;  stroke-linecap:round; stroke-linejoin:round;fill-rule:evenodd;"
       d="M 43332.1,45256.4 43396.8,45283.3 43455.1,45322.2 43504.6,45371.7 43543.5,45430 43570.3,45494.7 43584,45563.4 43584,45633.5 43570.3,45702.2 43543.5,45766.9 43504.6,45825.1 43455.1,45874.7 43396.8,45913.6 43332.1,45940.4 43263.4,45954.1 43193.3,45954.1 43124.6,45940.4 43059.9,45913.6 43001.6,45874.7 42952.1,45825.1 42913.2,45766.9 42886.4,45702.2 42872.7,45633.5 42872.7,45563.4 42886.4,45494.7 42913.2,45430 42952.1,45371.7 43001.6,45322.2 43059.9,45283.3 43124.6,45256.4 43193.3,45242.8 43263.4,45242.8 Z"
       id="path666" />
    <path
       style="fill:#000000; fill-opacity:1.0;  stroke:#000000; stroke-width:0; stroke-opacity:1;  stroke-linecap:round; stroke-linejoin:round;fill-rule:evenodd;"
       d="M 60025,45177.7 60089.7,45204.5 60148,45243.4 60197.5,45293 60236.4,45351.2 60263.2,45415.9 60276.9,45484.7 60276.9,45554.7 60263.2,45623.4 60236.4,45688.1 60197.5,45746.4 60148,45795.9 60089.7,45834.9 60025,45861.7 59956.3,45875.3 59886.2,45875.3 59817.5,45861.7 59752.8,45834.9 59694.5,45795.9 59645,45746.4 59606.1,45688.1 59579.3,45623.4 59565.6,45554.7 59565.6,45484.7 59579.3,45415.9 59606.1,45351.2 59645,45293 59694.5,45243.4 59752.8,45204.5 59817.5,45177.7 59886.2,45164 59956.3,45164 Z"
       id="path668" />
    <path
       style="fill:#000000; fill-opacity:1.0;  stroke:#000000; stroke-width:0; stroke-opacity:1;  stroke-linecap:round; stroke-linejoin:round;fill-rule:evenodd;"
       d="M 43332.1,44256.4 43396.8,44283.3 43455.1,44322.2 43504.6,44371.7 43543.5,44430 43570.3,44494.7 43584,44563.4 43584,44633.5 43570.3,44702.2 43543.5,44766.9 43504.6,44825.1 43455.1,44874.7 43396.8,44913.6 43332.1,44940.4 43263.4,44954.1 43193.3,44954.1 43124.6,44940.4 43059.9,44913.6 43001.6,44874.7 42952.1,44825.1 42913.2,44766.9 42886.4,44702.2 42872.7,44633.5 42872.7,44563.4 42886.4,44494.7 42913.2,44430 42952.1,44371.7 43001.6,44322.2 43059.9,44283.3 43124.6,44256.4 43193.3,44242.8 43263.4,44242.8 Z"
       id="path670" />
    <path
       style="fill:#000000; fill-opacity:1.0;  stroke:#000000; stroke-width:0; stroke-opacity:1;  stroke-linecap:round; stroke-linejoin:round;fill-rule:evenodd;"
       d="M 60025,44177.7 60089.7,44204.5 60148,44243.4 60197.5,44293 60236.4,44351.2 60263.2,44415.9 60276.9,44484.7 60276.9,44554.7 60263.2,44623.4 60236.4,44688.1 60197.5,44746.4 60148,44795.9 60089.7,44834.9 60025,44861.7 59956.3,44875.3 59886.2,44875.3 59817.5,44861.7 59752.8,44834.9 59694.5,44795.9 59645,44746.4 59606.1,44688.1 59579.3,44623.4 59565.6,44554.7 59565.6,44484.7 59579.3,44415.9 59606.1,44351.2 59645,44293 59694.5,44243.4 59752.8,44204.5 59817.5,44177.7 59886.2,44164 59956.3,44164 Z"
       id="path672" />
    <path
       style="fill:#000000; fill-opacity:1.0;  stroke:#000000; stroke-width:0; stroke-opacity:1;  stroke-linecap:round; stroke-linejoin:round;fill-rule:evenodd;"
       d="M 43584,43954.1 42872.7,43954.1 42872.7,43242.8 43584,43242.8 Z"
       id="path674" />
    <path
       style="fill:#000000; fill-opacity:1.0;  stroke:#000000; stroke-width:0; stroke-opacity:1;  stroke-linecap:round; stroke-linejoin:round;fill-rule:evenodd;"
       d="M 60276.9,43875.3 59565.6,43875.3 59565.6,43164 60276.9,43164 Z"
       id="path676" />
    <path
       style="fill:#000000; fill-opacity:1.0;  stroke:#000000; stroke-width:0; stroke-opacity:1;  stroke-linecap:round; stroke-linejoin:round;fill-rule:evenodd;"
       d="M 55477.7,43493.4 54372.7,43493.4 54372.7,43097.1 55477.7,43097.1 Z"
       id="path678" />
    <path
       style="fill:#000000; fill-opacity:1.0;  stroke:#000000; stroke-width:0; stroke-opacity:1;  stroke-linecap:round; stroke-linejoin:round;fill-rule:evenodd;"
       d="M 48784.8,43493.4 47679.8,43493.4 47679.8,43097.1 48784.8,43097.1 Z"
       id="path680" />
    <path
       style="fill:#000000; fill-opacity:1.0;  stroke:#000000; stroke-width:0; stroke-opacity:1;  stroke-linecap:round; stroke-linejoin:round;fill-rule:evenodd;"
       d="M 55477.7,42993.4 54372.7,42993.4 54372.7,42597.1 55477.7,42597.1 Z"
       id="path682" />
    <path
       style="fill:#000000; fill-opacity:1.0;  stroke:#000000; stroke-width:0; stroke-opacity:1;  stroke-linecap:round; stroke-linejoin:round;fill-rule:evenodd;"
       d="M 48784.8,42993.4 47679.8,42993.4 47679.8,42597.1 48784.8,42597.1 Z"
       id="path684" />
    <path
       style="fill:#000000; fill-opacity:1.0;  stroke:#000000; stroke-width:0; stroke-opacity:1;  stroke-linecap:round; stroke-linejoin:round;fill-rule:evenodd;"
       d="M 43332.1,42248.6 43396.8,42275.4 43455.1,42314.3 43504.6,42363.8 43543.5,42422.1 43570.3,42486.8 43584,42555.5 43584,42625.6 43570.3,42694.3 43543.5,42759 43504.6,42817.3 43455.1,42866.8 43396.8,42905.7 43332.1,42932.5 43263.4,42946.2 43193.3,42946.2 43124.6,42932.5 43059.9,42905.7 43001.6,42866.8 42952.1,42817.3 42913.2,42759 42886.4,42694.3 42872.7,42625.6 42872.7,42555.5 42886.4,42486.8 42913.2,42422.1 42952.1,42363.8 43001.6,42314.3 43059.9,42275.4 43124.6,42248.6 43193.3,42234.9 43263.4,42234.9 Z"
       id="path686" />
    <path
       style="fill:#000000; fill-opacity:1.0;  stroke:#000000; stroke-width:0; stroke-opacity:1;  stroke-linecap:round; stroke-linejoin:round;fill-rule:evenodd;"
       d="M 60025,42177.7 60089.7,42204.5 60148,42243.4 60197.5,42293 60236.4,42351.2 60263.2,42415.9 60276.9,42484.7 60276.9,42554.7 60263.2,42623.4 60236.4,42688.1 60197.5,42746.4 60148,42795.9 60089.7,42834.9 60025,42861.7 59956.3,42875.3 59886.2,42875.3 59817.5,42861.7 59752.8,42834.9 59694.5,42795.9 59645,42746.4 59606.1,42688.1 59579.3,42623.4 59565.6,42554.7 59565.6,42484.7 59579.3,42415.9 59606.1,42351.2 59645,42293 59694.5,42243.4 59752.8,42204.5 59817.5,42177.7 59886.2,42164 59956.3,42164 Z"
       id="path688" />
    <path
       style="fill:#000000; fill-opacity:1.0;  stroke:#000000; stroke-width:0; stroke-opacity:1;  stroke-linecap:round; stroke-linejoin:round;fill-rule:evenodd;"
       d="M 48784.8,42493.4 47679.8,42493.4 47679.8,42097.1 48784.8,42097.1 Z"
       id="path690" />
    <path
       style="fill:#000000; fill-opacity:1.0;  stroke:#000000; stroke-width:0; stroke-opacity:1;  stroke-linecap:round; stroke-linejoin:round;fill-rule:evenodd;"
       d="M 55477.7,42493.4 54372.7,42493.4 54372.7,42097.1 55477.7,42097.1 Z"
       id="path692" />
    <path
       style="fill:#000000; fill-opacity:1.0;  stroke:#000000; stroke-width:0; stroke-opacity:1;  stroke-linecap:round; stroke-linejoin:round;fill-rule:evenodd;"
       d="M 48784.8,41993.4 47679.8,41993.4 47679.8,41597.1 48784.8,41597.1 Z"
       id="path694" />
    <path
       style="fill:#000000; fill-opacity:1.0;  stroke:#000000; stroke-width:0; stroke-opacity:1;  stroke-linecap:round; stroke-linejoin:round;fill-rule:evenodd;"
       d="M 55477.7,41993.4 54372.7,41993.4 54372.7,41597.1 55477.7,41597.1 Z"
       id="path696" />
    <path
       style="fill:#000000; fill-opacity:1.0;  stroke:#000000; stroke-width:0; stroke-opacity:1;  stroke-linecap:round; stroke-linejoin:round;fill-rule:evenodd;"
       d="M 43584,41946.2 42872.7,41946.2 42872.7,41234.9 43584,41234.9 Z"
       id="path698" />
    <path
       style="fill:#000000; fill-opacity:1.0;  stroke:#000000; stroke-width:0; stroke-opacity:1;  stroke-linecap:round; stroke-linejoin:round;fill-rule:evenodd;"
       d="M 60025,41177.7 60089.7,41204.5 60148,41243.4 60197.5,41293 60236.4,41351.2 60263.2,41415.9 60276.9,41484.7 60276.9,41554.7 60263.2,41623.4 60236.4,41688.1 60197.5,41746.4 60148,41795.9 60089.7,41834.9 60025,41861.7 59956.3,41875.3 59886.2,41875.3 59817.5,41861.7 59752.8,41834.9 59694.5,41795.9 59645,41746.4 59606.1,41688.1 59579.3,41623.4 59565.6,41554.7 59565.6,41484.7 59579.3,41415.9 59606.1,41351.2 59645,41293 59694.5,41243.4 59752.8,41204.5 59817.5,41177.7 59886.2,41164 59956.3,41164 Z"
       id="path700" />
    <path
       style="fill:#000000; fill-opacity:1.0;  stroke:#000000; stroke-width:0; stroke-opacity:1;  stroke-linecap:round; stroke-linejoin:round;fill-rule:evenodd;"
       d="M 48784.8,41493.4 47679.8,41493.4 47679.8,41097.1 48784.8,41097.1 Z"
       id="path702" />
    <path
       style="fill:#000000; fill-opacity:1.0;  stroke:#000000; stroke-width:0; stroke-opacity:1;  stroke-linecap:round; stroke-linejoin:round;fill-rule:evenodd;"
       d="M 55477.7,41493.4 54372.7,41493.4 54372.7,41097.1 55477.7,41097.1 Z"
       id="path704" />
    <path
       style="fill:#000000; fill-opacity:1.0;  stroke:#000000; stroke-width:0; stroke-opacity:1;  stroke-linecap:round; stroke-linejoin:round;fill-rule:evenodd;"
       d="M 48784.8,40993.4 47679.8,40993.4 47679.8,40597.1 48784.8,40597.1 Z"
       id="path706" />
    <path
       style="fill:#000000; fill-opacity:1.0;  stroke:#000000; stroke-width:0; stroke-opacity:1;  stroke-linecap:round; stroke-linejoin:round;fill-rule:evenodd;"
       d="M 55477.7,40993.4 54372.7,40993.4 54372.7,40597.1 55477.7,40597.1 Z"
       id="path708" />
    <path
       style="fill:#000000; fill-opacity:1.0;  stroke:#000000; stroke-width:0; stroke-opacity:1;  stroke-linecap:round; stroke-linejoin:round;fill-rule:evenodd;"
       d="M 43332.1,40232.8 43396.8,40259.6 43455.1,40298.6 43504.6,40348.1 43543.5,40406.3 43570.3,40471.1 43584,40539.8 43584,40609.8 43570.3,40678.5 43543.5,40743.3 43504.6,40801.5 43455.1,40851.1 43396.8,40890 43332.1,40916.8 43263.4,40930.4 43193.3,40930.4 43124.6,40916.8 43059.9,40890 43001.6,40851.1 42952.1,40801.5 42913.2,40743.3 42886.4,40678.5 42872.7,40609.8 42872.7,40539.8 42886.4,40471.1 42913.2,40406.3 42952.1,40348.1 43001.6,40298.6 43059.9,40259.6 43124.6,40232.8 43193.3,40219.2 43263.4,40219.2 Z"
       id="path710" />
    <path
       style="fill:#000000; fill-opacity:1.0;  stroke:#000000; stroke-width:0; stroke-opacity:1;  stroke-linecap:round; stroke-linejoin:round;fill-rule:evenodd;"
       d="M 60025,40177.7 60089.7,40204.5 60148,40243.4 60197.5,40293 60236.4,40351.2 60263.2,40415.9 60276.9,40484.7 60276.9,40554.7 60263.2,40623.4 60236.4,40688.1 60197.5,40746.4 60148,40795.9 60089.7,40834.9 60025,40861.7 59956.3,40875.3 59886.2,40875.3 59817.5,40861.7 59752.8,40834.9 59694.5,40795.9 59645,40746.4 59606.1,40688.1 59579.3,40623.4 59565.6,40554.7 59565.6,40484.7 59579.3,40415.9 59606.1,40351.2 59645,40293 59694.5,40243.4 59752.8,40204.5 59817.5,40177.7 59886.2,40164 59956.3,40164 Z"
       id="path712" />
    <path
       style="fill:#000000; fill-opacity:1.0;  stroke:#000000; stroke-width:0; stroke-opacity:1;  stroke-linecap:round; stroke-linejoin:round;fill-rule:evenodd;"
       d="M 55477.7,40493.4 54372.7,40493.4 54372.7,40097.1 55477.7,40097.1 Z"
       id="path714" />
    <path
       style="fill:#000000; fill-opacity:1.0;  stroke:#000000; stroke-width:0; stroke-opacity:1;  stroke-linecap:round; stroke-linejoin:round;fill-rule:evenodd;"
       d="M 48784.8,40493.4 47679.8,40493.4 47679.8,40097.1 48784.8,40097.1 Z"
       id="path716" />
    <path
       style="fill:#000000; fill-opacity:1.0;  stroke:#000000; stroke-width:0; stroke-opacity:1;  stroke-linecap:round; stroke-linejoin:round;fill-rule:evenodd;"
       d="M 48784.8,39993.4 47679.8,39993.4 47679.8,39597.1 48784.8,39597.1 Z"
       id="path718" />
    <path
       style="fill:#000000; fill-opacity:1.0;  stroke:#000000; stroke-width:0; stroke-opacity:1;  stroke-linecap:round; stroke-linejoin:round;fill-rule:evenodd;"
       d="M 55477.7,39993.4 54372.7,39993.4 54372.7,39597.1 55477.7,39597.1 Z"
       id="path720" />
    <path
       style="fill:#000000; fill-opacity:1.0;  stroke:#000000; stroke-width:0; stroke-opacity:1;  stroke-linecap:round; stroke-linejoin:round;fill-rule:evenodd;"
       d="M 43332.1,39232.8 43396.8,39259.6 43455.1,39298.6 43504.6,39348.1 43543.5,39406.3 43570.3,39471.1 43584,39539.8 43584,39609.8 43570.3,39678.5 43543.5,39743.3 43504.6,39801.5 43455.1,39851.1 43396.8,39890 43332.1,39916.8 43263.4,39930.4 43193.3,39930.4 43124.6,39916.8 43059.9,39890 43001.6,39851.1 42952.1,39801.5 42913.2,39743.3 42886.4,39678.5 42872.7,39609.8 42872.7,39539.8 42886.4,39471.1 42913.2,39406.3 42952.1,39348.1 43001.6,39298.6 43059.9,39259.6 43124.6,39232.8 43193.3,39219.2 43263.4,39219.2 Z"
       id="path722" />
    <path
       style="fill:#000000; fill-opacity:1.0;  stroke:#000000; stroke-width:0; stroke-opacity:1;  stroke-linecap:round; stroke-linejoin:round;fill-rule:evenodd;"
       d="M 60025,39177.7 60089.7,39204.5 60148,39243.4 60197.5,39293 60236.4,39351.2 60263.2,39415.9 60276.9,39484.7 60276.9,39554.7 60263.2,39623.4 60236.4,39688.1 60197.5,39746.4 60148,39795.9 60089.7,39834.9 60025,39861.7 59956.3,39875.3 59886.2,39875.3 59817.5,39861.7 59752.8,39834.9 59694.5,39795.9 59645,39746.4 59606.1,39688.1 59579.3,39623.4 59565.6,39554.7 59565.6,39484.7 59579.3,39415.9 59606.1,39351.2 59645,39293 59694.5,39243.4 59752.8,39204.5 59817.5,39177.7 59886.2,39164 59956.3,39164 Z"
       id="path724" />
    <path
       style="fill:#000000; fill-opacity:1.0;  stroke:#000000; stroke-width:0; stroke-opacity:1;  stroke-linecap:round; stroke-linejoin:round;fill-rule:evenodd;"
       d="M 55477.7,39493.4 54372.7,39493.4 54372.7,39097.1 55477.7,39097.1 Z"
       id="path726" />
    <path
       style="fill:#000000; fill-opacity:1.0;  stroke:#000000; stroke-width:0; stroke-opacity:1;  stroke-linecap:round; stroke-linejoin:round;fill-rule:evenodd;"
       d="M 48784.8,39493.4 47679.8,39493.4 47679.8,39097.1 48784.8,39097.1 Z"
       id="path728" />
    <path
       style="fill:#000000; fill-opacity:1.0;  stroke:#000000; stroke-width:0; stroke-opacity:1;  stroke-linecap:round; stroke-linejoin:round;fill-rule:evenodd;"
       d="M 55477.7,38993.4 54372.7,38993.4 54372.7,38597.1 55477.7,38597.1 Z"
       id="path730" />
    <path
       style="fill:#000000; fill-opacity:1.0;  stroke:#000000; stroke-width:0; stroke-opacity:1;  stroke-linecap:round; stroke-linejoin:round;fill-rule:evenodd;"
       d="M 48784.8,38993.4 47679.8,38993.4 47679.8,38597.1 48784.8,38597.1 Z"
       id="path732" />
    <path
       style="fill:#000000; fill-opacity:1.0;  stroke:#000000; stroke-width:0; stroke-opacity:1;  stroke-linecap:round; stroke-linejoin:round;fill-rule:evenodd;"
       d="M 43332.1,38232.8 43396.8,38259.6 43455.1,38298.6 43504.6,38348.1 43543.5,38406.3 43570.3,38471.1 43584,38539.8 43584,38609.8 43570.3,38678.5 43543.5,38743.3 43504.6,38801.5 43455.1,38851.1 43396.8,38890 43332.1,38916.8 43263.4,38930.4 43193.3,38930.4 43124.6,38916.8 43059.9,38890 43001.6,38851.1 42952.1,38801.5 42913.2,38743.3 42886.4,38678.5 42872.7,38609.8 42872.7,38539.8 42886.4,38471.1 42913.2,38406.3 42952.1,38348.1 43001.6,38298.6 43059.9,38259.6 43124.6,38232.8 43193.3,38219.2 43263.4,38219.2 Z"
       id="path734" />
    <path
       style="fill:#000000; fill-opacity:1.0;  stroke:#000000; stroke-width:0; stroke-opacity:1;  stroke-linecap:round; stroke-linejoin:round;fill-rule:evenodd;"
       d="M 60276.9,38875.3 59565.6,38875.3 59565.6,38164 60276.9,38164 Z"
       id="path736" />
    <path
       style="fill:#000000; fill-opacity:1.0;  stroke:#000000; stroke-width:0; stroke-opacity:1;  stroke-linecap:round; stroke-linejoin:round;fill-rule:evenodd;"
       d="M 48784.8,38493.4 47679.8,38493.4 47679.8,38097.1 48784.8,38097.1 Z"
       id="path738" />
    <path
       style="fill:#000000; fill-opacity:1.0;  stroke:#000000; stroke-width:0; stroke-opacity:1;  stroke-linecap:round; stroke-linejoin:round;fill-rule:evenodd;"
       d="M 55477.7,38493.4 54372.7,38493.4 54372.7,38097.1 55477.7,38097.1 Z"
       id="path740" />
    <path
       style="fill:#000000; fill-opacity:1.0;  stroke:#000000; stroke-width:0; stroke-opacity:1;  stroke-linecap:round; stroke-linejoin:round;fill-rule:evenodd;"
       d="M 52362.8,38243.2 50352.3,38243.2 50352.3,36232.7 52362.8,36232.7 Z"
       id="path742" />
    <path
       style="fill:#000000; fill-opacity:1.0;  stroke:#000000; stroke-width:0; stroke-opacity:1;  stroke-linecap:round; stroke-linejoin:round;fill-rule:evenodd;"
       d="M 55477.7,37993.4 54372.7,37993.4 54372.7,37597.1 55477.7,37597.1 Z"
       id="path744" />
    <path
       style="fill:#000000; fill-opacity:1.0;  stroke:#000000; stroke-width:0; stroke-opacity:1;  stroke-linecap:round; stroke-linejoin:round;fill-rule:evenodd;"
       d="M 48784.8,37993.4 47679.8,37993.4 47679.8,37597.1 48784.8,37597.1 Z"
       id="path746" />
    <path
       style="fill:#000000; fill-opacity:1.0;  stroke:#000000; stroke-width:0; stroke-opacity:1;  stroke-linecap:round; stroke-linejoin:round;fill-rule:evenodd;"
       d="M 43332.1,37232.8 43396.8,37259.6 43455.1,37298.6 43504.6,37348.1 43543.5,37406.3 43570.3,37471.1 43584,37539.8 43584,37609.8 43570.3,37678.5 43543.5,37743.3 43504.6,37801.5 43455.1,37851.1 43396.8,37890 43332.1,37916.8 43263.4,37930.4 43193.3,37930.4 43124.6,37916.8 43059.9,37890 43001.6,37851.1 42952.1,37801.5 42913.2,37743.3 42886.4,37678.5 42872.7,37609.8 42872.7,37539.8 42886.4,37471.1 42913.2,37406.3 42952.1,37348.1 43001.6,37298.6 43059.9,37259.6 43124.6,37232.8 43193.3,37219.2 43263.4,37219.2 Z"
       id="path748" />
    <path
       style="fill:#000000; fill-opacity:1.0;  stroke:#000000; stroke-width:0; stroke-opacity:1;  stroke-linecap:round; stroke-linejoin:round;fill-rule:evenodd;"
       d="M 60025,37193.5 60089.7,37220.3 60148,37259.2 60197.5,37308.7 60236.4,37367 60263.2,37431.7 60276.9,37500.4 60276.9,37570.5 60263.2,37639.2 60236.4,37703.9 60197.5,37762.1 60148,37811.7 60089.7,37850.6 60025,37877.4 59956.3,37891.1 59886.2,37891.1 59817.5,37877.4 59752.8,37850.6 59694.5,37811.7 59645,37762.1 59606.1,37703.9 59579.3,37639.2 59565.6,37570.5 59565.6,37500.4 59579.3,37431.7 59606.1,37367 59645,37308.7 59694.5,37259.2 59752.8,37220.3 59817.5,37193.5 59886.2,37179.8 59956.3,37179.8 Z"
       id="path750" />
    <path
       style="fill:#000000; fill-opacity:1.0;  stroke:#000000; stroke-width:0; stroke-opacity:1;  stroke-linecap:round; stroke-linejoin:round;fill-rule:evenodd;"
       d="M 48784.8,37493.4 47679.8,37493.4 47679.8,37097.1 48784.8,37097.1 Z"
       id="path752" />
    <path
       style="fill:#000000; fill-opacity:1.0;  stroke:#000000; stroke-width:0; stroke-opacity:1;  stroke-linecap:round; stroke-linejoin:round;fill-rule:evenodd;"
       d="M 55477.7,37493.4 54372.7,37493.4 54372.7,37097.1 55477.7,37097.1 Z"
       id="path754" />
    <path
       style="fill:#000000; fill-opacity:1.0;  stroke:#000000; stroke-width:0; stroke-opacity:1;  stroke-linecap:round; stroke-linejoin:round;fill-rule:evenodd;"
       d="M 55477.7,36993.4 54372.7,36993.4 54372.7,36597.1 55477.7,36597.1 Z"
       id="path756" />
    <path
       style="fill:#000000; fill-opacity:1.0;  stroke:#000000; stroke-width:0; stroke-opacity:1;  stroke-linecap:round; stroke-linejoin:round;fill-rule:evenodd;"
       d="M 48784.8,36993.4 47679.8,36993.4 47679.8,36597.1 48784.8,36597.1 Z"
       id="path758" />
    <path
       style="fill:#000000; fill-opacity:1.0;  stroke:#000000; stroke-width:0; stroke-opacity:1;  stroke-linecap:round; stroke-linejoin:round;fill-rule:evenodd;"
       d="M 43584,36930.4 42872.7,36930.4 42872.7,36219.2 43584,36219.2 Z"
       id="path760" />
    <path
       style="fill:#000000; fill-opacity:1.0;  stroke:#000000; stroke-width:0; stroke-opacity:1;  stroke-linecap:round; stroke-linejoin:round;fill-rule:evenodd;"
       d="M 60276.9,36891.1 59565.6,36891.1 59565.6,36179.8 60276.9,36179.8 Z"
       id="path762" />
    <path
       style="fill:#000000; fill-opacity:1.0;  stroke:#000000; stroke-width:0; stroke-opacity:1;  stroke-linecap:round; stroke-linejoin:round;fill-rule:evenodd;"
       d="M 45442.3,35878.5 45507,35905.3 45565.3,35944.2 45614.8,35993.8 45653.8,36052 45680.6,36116.7 45694.2,36185.4 45694.2,36255.5 45680.6,36324.2 45653.8,36388.9 45614.8,36447.2 45565.3,36496.7 45507,36535.6 45442.3,36562.5 45373.6,36576.1 45303.6,36576.1 45234.8,36562.5 45170.1,36535.6 45111.9,36496.7 45062.3,36447.2 45023.4,36388.9 44996.6,36324.2 44982.9,36255.5 44982.9,36185.4 44996.6,36116.7 45023.4,36052 45062.3,35993.8 45111.9,35944.2 45170.1,35905.3 45234.8,35878.5 45303.6,35864.8 45373.6,35864.8 Z"
       id="path764" />
    <path
       style="fill:#000000; fill-opacity:1.0;  stroke:#000000; stroke-width:0; stroke-opacity:1;  stroke-linecap:round; stroke-linejoin:round;fill-rule:evenodd;"
       d="M 46694.2,36576.1 45982.9,36576.1 45982.9,35864.8 46694.2,35864.8 Z"
       id="path766" />
    <path
       style="fill:#000000; fill-opacity:1.0;  stroke:#000000; stroke-width:0; stroke-opacity:1;  stroke-linecap:round; stroke-linejoin:round;fill-rule:evenodd;"
       d="M 55477.7,36493.4 54372.7,36493.4 54372.7,36097.1 55477.7,36097.1 Z"
       id="path768" />
    <path
       style="fill:#000000; fill-opacity:1.0;  stroke:#000000; stroke-width:0; stroke-opacity:1;  stroke-linecap:round; stroke-linejoin:round;fill-rule:evenodd;"
       d="M 48784.8,36493.4 47679.8,36493.4 47679.8,36097.1 48784.8,36097.1 Z"
       id="path770" />
    <path
       style="fill:#000000; fill-opacity:1.0;  stroke:#000000; stroke-width:0; stroke-opacity:1;  stroke-linecap:round; stroke-linejoin:round;fill-rule:evenodd;"
       d="M 55477.7,35993.4 54372.7,35993.4 54372.7,35597.1 55477.7,35597.1 Z"
       id="path772" />
    <path
       style="fill:#000000; fill-opacity:1.0;  stroke:#000000; stroke-width:0; stroke-opacity:1;  stroke-linecap:round; stroke-linejoin:round;fill-rule:evenodd;"
       d="M 48784.8,35993.4 47679.8,35993.4 47679.8,35597.1 48784.8,35597.1 Z"
       id="path774" />
    <path
       style="fill:#000000; fill-opacity:1.0;  stroke:#000000; stroke-width:0; stroke-opacity:1;  stroke-linecap:round; stroke-linejoin:round;fill-rule:evenodd;"
       d="M 55477.7,35493.4 54372.7,35493.4 54372.7,35097.1 55477.7,35097.1 Z"
       id="path776" />
    <path
       style="fill:#000000; fill-opacity:1.0;  stroke:#000000; stroke-width:0; stroke-opacity:1;  stroke-linecap:round; stroke-linejoin:round;fill-rule:evenodd;"
       d="M 48784.8,35493.4 47679.8,35493.4 47679.8,35097.1 48784.8,35097.1 Z"
       id="path778" />
    <path
       style="fill:#000000; fill-opacity:1.0;  stroke:#000000; stroke-width:0; stroke-opacity:1;  stroke-linecap:round; stroke-linejoin:round;fill-rule:evenodd;"
       d="M 59926.5,35353.7 59443.6,35353.7 59443.6,34461.3 59926.5,34461.3 Z"
       id="path780" />
    <path
       style="fill:#000000; fill-opacity:1.0;  stroke:#000000; stroke-width:0; stroke-opacity:1;  stroke-linecap:round; stroke-linejoin:round;fill-rule:evenodd;"
       d="M 57524.9,35353.7 57042,35353.7 57042,34461.3 57524.9,34461.3 Z"
       id="path782" />
    <path
       style="fill:#000000; fill-opacity:1.0;  stroke:#000000; stroke-width:0; stroke-opacity:1;  stroke-linecap:round; stroke-linejoin:round;fill-rule:evenodd;"
       d="M 46376.8,34301.3 46388.8,34305 46399.8,34310.9 46409.5,34318.8 46417.5,34328.5 46423.4,34339.6 46427,34351.6 46428.5,34366.5 46428.5,35161 46427,35176 46423.4,35188 46417.5,35199 46409.5,35208.7 46399.8,35216.7 46388.8,35222.6 46376.8,35226.2 46361.8,35227.7 45449.2,35227.7 45434.3,35226.2 45422.3,35222.6 45411.2,35216.7 45401.5,35208.7 45393.6,35199 45387.7,35188 45384,35176 45382.5,35161 45382.5,34366.5 45384,34351.6 45387.7,34339.6 45393.6,34328.5 45401.5,34318.8 45411.2,34310.9 45422.3,34305 45434.3,34301.3 45449.2,34299.9 46361.8,34299.9 Z"
       id="path784" />
    <path
       style="fill:#000000; fill-opacity:1.0;  stroke:#000000; stroke-width:0; stroke-opacity:1;  stroke-linecap:round; stroke-linejoin:round;fill-rule:evenodd;"
       d="M 43935.8,34301.3 43947.8,34305 43958.9,34310.9 43968.6,34318.8 43976.5,34328.5 43982.4,34339.6 43986.1,34351.6 43987.5,34366.5 43987.5,35161 43986.1,35176 43982.4,35188 43976.5,35199 43968.6,35208.7 43958.9,35216.7 43947.8,35222.6 43935.8,35226.2 43920.9,35227.7 43008.3,35227.7 42993.3,35226.2 42981.3,35222.6 42970.3,35216.7 42960.6,35208.7 42952.6,35199 42946.7,35188 42943.1,35176 42941.6,35161 42941.6,34366.5 42943.1,34351.6 42946.7,34339.6 42952.6,34328.5 42960.6,34318.8 42970.3,34310.9 42981.3,34305 42993.3,34301.3 43008.3,34299.9 43920.9,34299.9 Z"
       id="path786" />
    <path
       style="fill:#000000; fill-opacity:1.0;  stroke:#000000; stroke-width:0; stroke-opacity:1;  stroke-linecap:round; stroke-linejoin:round;fill-rule:evenodd;"
       d="M 48784.8,34993.4 47679.8,34993.4 47679.8,34597.1 48784.8,34597.1 Z"
       id="path788" />
    <path
       style="fill:#000000; fill-opacity:1.0;  stroke:#000000; stroke-width:0; stroke-opacity:1;  stroke-linecap:round; stroke-linejoin:round;fill-rule:evenodd;"
       d="M 55477.7,34993.4 54372.7,34993.4 54372.7,34597.1 55477.7,34597.1 Z"
       id="path790" />
    <path
       style="fill:#000000; fill-opacity:1.0;  stroke:#000000; stroke-width:0; stroke-opacity:1;  stroke-linecap:round; stroke-linejoin:round;fill-rule:evenodd;"
       d="M 41802.5,34144 41816.2,34148.2 41828.8,34154.9 41839.9,34164 41849,34175.1 41855.7,34187.8 41859.9,34201.5 41861.6,34218.2 41861.6,34669.6 41859.9,34686.3 41855.7,34700 41849,34712.7 41839.9,34723.8 41828.8,34732.8 41816.2,34739.6 41802.5,34743.8 41785.8,34745.4 41206.4,34745.4 41189.7,34743.8 41175.9,34739.6 41163.3,34732.8 41152.2,34723.8 41143.1,34712.7 41136.4,34700 41132.2,34686.3 41130.6,34669.6 41130.6,34218.2 41132.2,34201.5 41136.4,34187.8 41143.1,34175.1 41152.2,34164 41163.3,34154.9 41175.9,34148.2 41189.7,34144 41206.4,34142.4 41785.8,34142.4 Z"
       id="path792" />
    <path
       style="fill:#000000; fill-opacity:1.0;  stroke:#000000; stroke-width:0; stroke-opacity:1;  stroke-linecap:round; stroke-linejoin:round;fill-rule:evenodd;"
       d="M 55477.7,34493.4 54372.7,34493.4 54372.7,34097.1 55477.7,34097.1 Z"
       id="path794" />
    <path
       style="fill:#000000; fill-opacity:1.0;  stroke:#000000; stroke-width:0; stroke-opacity:1;  stroke-linecap:round; stroke-linejoin:round;fill-rule:evenodd;"
       d="M 48784.8,34493.4 47679.8,34493.4 47679.8,34097.1 48784.8,34097.1 Z"
       id="path796" />
    <path
       style="fill:#000000; fill-opacity:1.0;  stroke:#000000; stroke-width:0; stroke-opacity:1;  stroke-linecap:round; stroke-linejoin:round;fill-rule:evenodd;"
       d="M 41802.5,32972.8 41816.2,32976.9 41828.8,32983.7 41839.9,32992.8 41849,33003.9 41855.7,33016.5 41859.9,33030.2 41861.6,33046.9 41861.6,33498.4 41859.9,33515.1 41855.7,33528.8 41849,33541.4 41839.9,33552.5 41828.8,33561.6 41816.2,33568.3 41802.5,33572.5 41785.8,33574.1 41206.4,33574.1 41189.7,33572.5 41175.9,33568.3 41163.3,33561.6 41152.2,33552.5 41143.1,33541.4 41136.4,33528.8 41132.2,33515.1 41130.6,33498.4 41130.6,33046.9 41132.2,33030.2 41136.4,33016.5 41143.1,33003.9 41152.2,32992.8 41163.3,32983.7 41175.9,32976.9 41189.7,32972.8 41206.4,32971.1 41785.8,32971.1 Z"
       id="path798" />
    <path
       style="fill:#000000; fill-opacity:1.0;  stroke:#000000; stroke-width:0; stroke-opacity:1;  stroke-linecap:round; stroke-linejoin:round;fill-rule:evenodd;"
       d="M 43935.8,31781.7 43947.8,31785.3 43958.9,31791.2 43968.6,31799.2 43976.5,31808.8 43982.4,31819.9 43986.1,31831.9 43987.5,31846.8 43987.5,32641.3 43986.1,32656.3 43982.4,32668.3 43976.5,32679.3 43968.6,32689 43958.9,32697 43947.8,32702.9 43935.8,32706.5 43920.9,32708 43008.3,32708 42993.3,32706.5 42981.3,32702.9 42970.3,32697 42960.6,32689 42952.6,32679.3 42946.7,32668.3 42943.1,32656.3 42941.6,32641.3 42941.6,31846.8 42943.1,31831.9 42946.7,31819.9 42952.6,31808.8 42960.6,31799.2 42970.3,31791.2 42981.3,31785.3 42993.3,31781.7 43008.3,31780.2 43920.9,31780.2 Z"
       id="path800" />
    <path
       style="fill:#000000; fill-opacity:1.0;  stroke:#000000; stroke-width:0; stroke-opacity:1;  stroke-linecap:round; stroke-linejoin:round;fill-rule:evenodd;"
       d="M 46376.8,31781.7 46388.8,31785.3 46399.8,31791.2 46409.5,31799.2 46417.5,31808.8 46423.4,31819.9 46427,31831.9 46428.5,31846.8 46428.5,32641.3 46427,32656.3 46423.4,32668.3 46417.5,32679.3 46409.5,32689 46399.8,32697 46388.8,32702.9 46376.8,32706.5 46361.8,32708 45449.2,32708 45434.3,32706.5 45422.3,32702.9 45411.2,32697 45401.5,32689 45393.6,32679.3 45387.7,32668.3 45384,32656.3 45382.5,32641.3 45382.5,31846.8 45384,31831.9 45387.7,31819.9 45393.6,31808.8 45401.5,31799.2 45411.2,31791.2 45422.3,31785.3 45434.3,31781.7 45449.2,31780.2 46361.8,31780.2 Z"
       id="path802" />
    <path
       style="fill:#000000; fill-opacity:1.0;  stroke:#000000; stroke-width:0; stroke-opacity:1;  stroke-linecap:round; stroke-linejoin:round;fill-rule:evenodd;"
       d="M 59926.5,32704.1 59443.6,32704.1 59443.6,31811.7 59926.5,31811.7 Z"
       id="path804" />
    <path
       style="fill:#000000; fill-opacity:1.0;  stroke:#000000; stroke-width:0; stroke-opacity:1;  stroke-linecap:round; stroke-linejoin:round;fill-rule:evenodd;"
       d="M 57524.9,32704.1 57042,32704.1 57042,31811.7 57524.9,31811.7 Z"
       id="path806" />
  </g>
  <g
     style="fill:#000000; fill-opacity:1.0;  stroke:#000000; stroke-width:19.685; stroke-opacity:1;  stroke-linecap:round; stroke-linejoin:round;"
     id="g810" />
  <g
     style="fill:#000000; fill-opacity:0.0;  stroke:#000000; stroke-width:19.685; stroke-opacity:1;  stroke-linecap:round; stroke-linejoin:round;"
     id="g862">
    <path
       d="M62992 50039 L39370 50039 "
       id="path812" />
    <path
       d="M62992 30708 L39370 30708 "
       id="path814" />
    <path
       d="M62992 30708 L62992 50039 "
       id="path816" />
    <path
       d="M39370 30708 L39370 50039 "
       id="path818" />
    <g
       id="g820" />
    <g
       id="g822" />
    <g
       id="g824" />
    <g
       id="g826" />
    <g
       id="g828" />
    <g
       id="g830" />
    <g
       id="g832" />
    <g
       id="g834" />
    <g
       id="g836" />
    <g
       id="g838" />
    <g
       id="g840" />
    <g
       id="g842" />
    <g
       id="g844" />
    <g
       id="g846" />
    <g
       id="g848" />
    <g
       id="g850" />
    <g
       id="g852" />
    <g
       id="g854" />
    <g
       id="g856" />
    <g
       id="g858" />
    <g
       id="g860" />
  </g>
</svg>
